<svg enable-background="new 260 -204 1120 758" height="758" viewBox="260 -204 1120 758" width="1120" xmlns="http://www.w3.org/2000/svg"><g fill="#3c3f43"><path d="m272.4-51.4c0-3.6 2.7-6.6 6.4-6.6 2.3 0 3.7.8 4.9 2l-1 1c-1.1-1-2.3-1.7-4-1.7-2.8 0-4.9 2.3-4.9 5.2 0 2.9 2.1 5.2 4.9 5.2 1.7 0 2.9-.7 4.1-1.8l.9.9c-1.3 1.3-2.8 2.2-5 2.2-3.6.1-6.3-2.7-6.3-6.4z"/><path d="m286-54.4h1.4v2.4c.7-1.5 2-2.7 3.8-2.6v1.5h-.1c-2 0-3.7 1.5-3.7 4.3v3.7h-1.4z"/><path d="m292.8-49.7c0-2.7 1.9-4.9 4.5-4.9 2.8 0 4.3 2.2 4.3 4.9v.4h-7.4c.2 2 1.6 3.2 3.3 3.2 1.3 0 2.2-.5 2.9-1.3l.9.8c-.9 1-2.1 1.7-3.8 1.7-2.7 0-4.7-1.9-4.7-4.8zm7.4-.6c-.1-1.7-1.1-3.2-3-3.2-1.6 0-2.8 1.4-3 3.2z"/><path d="m303.3-47.8c0-2 1.6-3 4-3 1.2 0 2 .2 2.9.4v-.3c0-1.7-1-2.5-2.8-2.5-1.1 0-2 .3-2.8.7l-.4-1.1c1-.5 2-.8 3.4-.8 1.3 0 2.3.3 3 1 .6.6 1 1.5 1 2.7v5.7h-1.3v-1.4c-.6.8-1.7 1.6-3.4 1.6-1.9-.1-3.6-1.1-3.6-3zm6.8-.7v-.9c-.7-.2-1.6-.4-2.7-.4-1.7 0-2.7.8-2.7 1.9 0 1.2 1.1 1.9 2.3 1.9 1.7 0 3.1-1 3.1-2.5z"/><path d="m314.9-47.6v-5.6h-1.3v-1.2h1.3v-2.8h1.4v2.8h3v1.2h-3v5.4c0 1.1.6 1.5 1.6 1.5.5 0 .9-.1 1.4-.3v1.2c-.5.3-1 .4-1.7.4-1.6.1-2.7-.7-2.7-2.6z"/><path d="m321.1-49.7c0-2.7 1.9-4.9 4.5-4.9 2.8 0 4.3 2.2 4.3 4.9v.4h-7.4c.2 2 1.6 3.2 3.3 3.2 1.3 0 2.2-.5 2.9-1.3l.9.8c-.9 1-2.1 1.7-3.8 1.7-2.6 0-4.7-1.9-4.7-4.8zm7.4-.6c-.1-1.7-1.1-3.2-3-3.2-1.6 0-2.8 1.4-3 3.2z"/><path d="m337-47.8c0-2 1.6-3 4-3 1.2 0 2 .2 2.9.4v-.3c0-1.7-1-2.5-2.8-2.5-1.1 0-2 .3-2.8.7l-.4-1.1c1-.5 2-.8 3.4-.8 1.3 0 2.3.3 3 1 .6.6 1 1.5 1 2.7v5.7h-1.3v-1.4c-.6.8-1.7 1.6-3.4 1.6-1.8-.1-3.6-1.1-3.6-3zm6.9-.7v-.9c-.7-.2-1.6-.4-2.7-.4-1.7 0-2.7.8-2.7 1.9 0 1.2 1.1 1.9 2.3 1.9 1.7 0 3.1-1 3.1-2.5z"/><path d="m353-49.7c0-2.7 2.1-4.9 4.8-4.9 1.8 0 2.9.7 3.7 1.7l-.9 1c-.7-.8-1.6-1.4-2.8-1.4-1.9 0-3.3 1.6-3.3 3.6 0 2 1.5 3.6 3.4 3.6 1.2 0 2.1-.6 2.8-1.4l.9.8c-.9 1-2.1 1.8-3.8 1.8-2.8 0-4.8-2.2-4.8-4.8z"/><path d="m363.3-49.7c0-2.7 2.1-4.9 4.9-4.9s4.8 2.2 4.8 4.8c0 2.6-2.1 4.9-4.9 4.9s-4.8-2.2-4.8-4.8zm8.2 0c0-2-1.5-3.7-3.5-3.7s-3.4 1.6-3.4 3.6c0 2 1.5 3.6 3.4 3.6 2.1.1 3.5-1.5 3.5-3.5z"/><path d="m375.3-48.6v-5.8h1.4v5.4c0 1.7.9 2.8 2.6 2.8 1.6 0 2.8-1.2 2.8-2.9v-5.3h1.4v9.3h-1.4v-1.6c-.6 1-1.6 1.8-3.2 1.8-2.3 0-3.6-1.5-3.6-3.7z"/><path d="m386.5-54.4h1.4v2.4c.7-1.5 2-2.7 3.8-2.6v1.5h-.1c-2 0-3.7 1.5-3.7 4.3v3.7h-1.4z"/><path d="m393.1-46.3.7-1c1 .8 2.1 1.2 3.2 1.2s1.9-.6 1.9-1.5c0-.9-1.1-1.3-2.3-1.6-1.5-.4-3.1-.9-3.1-2.6 0-1.6 1.3-2.7 3.2-2.7 1.1 0 2.4.4 3.3 1l-.6 1c-.9-.6-1.9-.9-2.8-.9-1.1 0-1.8.6-1.8 1.4 0 .9 1.2 1.2 2.4 1.6 1.4.4 3 1 3 2.7 0 1.8-1.5 2.8-3.3 2.8-1.3 0-2.8-.5-3.8-1.4z"/><path d="m402.2-49.7c0-2.7 1.9-4.9 4.5-4.9 2.8 0 4.3 2.2 4.3 4.9v.4h-7.4c.2 2 1.6 3.2 3.3 3.2 1.3 0 2.2-.5 2.9-1.3l.9.8c-.9 1-2.1 1.7-3.8 1.7-2.6 0-4.7-1.9-4.7-4.8zm7.4-.6c-.1-1.7-1.1-3.2-3-3.2-1.6 0-2.8 1.4-3 3.2z"/><path d="m418.9-58h1.6v1.5h-1.6zm.1 3.6h1.4v9.3h-1.4z"/><path d="m423.6-54.4h1.4v1.6c.6-1 1.6-1.8 3.2-1.8 2.3 0 3.6 1.5 3.6 3.7v5.8h-1.5v-5.4c0-1.7-.9-2.8-2.6-2.8-1.6 0-2.8 1.2-2.8 2.9v5.3h-1.4z"/><path d="m447-54.4h1.5l-3.9 9.6c-.8 1.9-1.7 2.6-3.1 2.6-.8 0-1.4-.2-2-.5l.5-1.1c.5.2.9.3 1.5.3.8 0 1.3-.4 1.9-1.7l-4.2-9.3h1.5l3.4 7.8z"/><path d="m450.1-49.7c0-2.7 2.1-4.9 4.9-4.9s4.8 2.2 4.8 4.8c0 2.6-2.1 4.9-4.9 4.9-2.7 0-4.8-2.2-4.8-4.8zm8.3 0c0-2-1.5-3.7-3.5-3.7s-3.4 1.6-3.4 3.6c0 2 1.5 3.6 3.4 3.6 2.1.1 3.5-1.5 3.5-3.5z"/><path d="m462.2-48.6v-5.8h1.4v5.4c0 1.7.9 2.8 2.6 2.8 1.6 0 2.8-1.2 2.8-2.9v-5.3h1.4v9.3h-1.4v-1.6c-.6 1-1.6 1.8-3.2 1.8-2.3 0-3.6-1.5-3.6-3.7z"/><path d="m473.4-54.4h1.4v2.4c.7-1.5 2-2.7 3.8-2.6v1.5h-.1c-2 0-3.7 1.5-3.7 4.3v3.7h-1.4z"/><path d="m486.5-57.7h1.4v12.6h-1.4z"/><path d="m491.6-57.7h4.4c4 0 6.7 2.7 6.7 6.3 0 3.5-2.7 6.3-6.7 6.3h-4.4zm1.4 1.3v10h3c3.2 0 5.2-2.2 5.2-5 0-2.8-2-5-5.2-5z"/><path d="m505.7-57.7h9.1v1.3h-7.7v4.3h6.9v1.3h-6.9v4.4h7.8v1.3h-9.2z"/><path d="m698.2-79.3h1.5l3.6 10.5 3.5-10.5h1.2l3.5 10.5 3.6-10.5h1.5l-4.5 12.7h-1.2l-3.5-10.2-3.5 10.2h-1.2z"/><path d="m718.2-76h1.4v2.4c.7-1.5 2-2.7 3.8-2.6v1.5h-.1c-2 0-3.7 1.5-3.7 4.3v3.7h-1.4z"/><path d="m724.9-79.6h1.6v1.5h-1.6zm.1 3.6h1.4v9.3h-1.4z"/><path d="m729.5-69.2v-5.6h-1.3v-1.2h1.3v-2.8h1.4v2.8h3v1.2h-3v5.4c0 1.1.6 1.5 1.6 1.5.5 0 .9-.1 1.4-.3v1.2c-.5.3-1 .4-1.7.4-1.6.1-2.7-.7-2.7-2.6z"/><path d="m735.1-71.3c0-2.7 1.9-4.9 4.5-4.9 2.8 0 4.3 2.2 4.3 4.9v.4h-7.4c.2 2 1.6 3.1 3.3 3.1 1.3 0 2.2-.5 2.9-1.3l.9.8c-.9 1-2.1 1.7-3.8 1.7-2.6.1-4.7-1.8-4.7-4.7zm7.4-.6c-.1-1.7-1.1-3.2-3-3.2-1.6 0-2.8 1.3-3 3.2z"/><path d="m753.2-71.3c0-2.7 2.1-4.9 4.8-4.9 1.8 0 2.9.7 3.7 1.7l-.9 1c-.7-.8-1.6-1.4-2.8-1.4-1.9 0-3.3 1.6-3.3 3.6 0 2 1.5 3.6 3.4 3.6 1.2 0 2.1-.6 2.8-1.4l.9.8c-.9 1-2.1 1.8-3.8 1.8-2.7 0-4.8-2.2-4.8-4.8z"/><path d="m762.9-71.3c0-2.7 2.1-4.9 4.9-4.9s4.8 2.2 4.8 4.8c0 2.6-2.1 4.9-4.9 4.9s-4.8-2.2-4.8-4.8zm8.3 0c0-2-1.5-3.7-3.5-3.7s-3.4 1.6-3.4 3.6c0 2 1.5 3.6 3.4 3.6 2.1.1 3.5-1.5 3.5-3.5z"/><path d="m773.9-71.3c0-3.1 2.2-4.9 4.4-4.9 1.7 0 2.8.9 3.6 2v-5.6h1.4v13.1h-1.4v-1.9c-.8 1.1-1.9 2.1-3.6 2.1-2.2 0-4.4-1.8-4.4-4.8zm8.1 0c0-2.2-1.6-3.6-3.4-3.6s-3.3 1.3-3.3 3.6c0 2.2 1.5 3.6 3.3 3.6s3.4-1.5 3.4-3.6z"/><path d="m785.2-71.3c0-2.7 1.9-4.9 4.5-4.9 2.8 0 4.3 2.2 4.3 4.9v.4h-7.4c.2 2 1.6 3.1 3.3 3.1 1.3 0 2.2-.5 2.9-1.3l.9.8c-.9 1-2.1 1.7-3.8 1.7-2.6.1-4.7-1.8-4.7-4.7zm7.4-.6c-.1-1.7-1.1-3.2-3-3.2-1.6 0-2.8 1.3-3 3.2z"/><path d="m807.6-76h1.5l-3.9 9.6c-.8 1.9-1.7 2.6-3.1 2.6-.8 0-1.4-.2-2-.5l.5-1.1c.5.2.9.3 1.5.3.8 0 1.4-.4 1.9-1.7l-4.2-9.3h1.5l3.4 7.8z"/><path d="m810-71.3c0-2.7 2.1-4.9 4.9-4.9s4.8 2.2 4.8 4.8c0 2.6-2.1 4.9-4.9 4.9-2.7 0-4.8-2.2-4.8-4.8zm8.3 0c0-2-1.5-3.7-3.5-3.7s-3.4 1.6-3.4 3.6c0 2 1.5 3.6 3.4 3.6 2.1.1 3.5-1.5 3.5-3.5z"/><path d="m821.4-70.2v-5.8h1.4v5.4c0 1.7.9 2.8 2.6 2.8 1.6 0 2.8-1.2 2.8-2.9v-5.3h1.4v9.3h-1.4v-1.6c-.6 1-1.6 1.8-3.2 1.8-2.2 0-3.6-1.5-3.6-3.7z"/><path d="m836-76h1.5l2.4 7.5 2.5-7.5h1.2l2.5 7.5 2.4-7.5h1.4l-3.3 9.4h-1.2l-2.5-7.3-2.5 7.3h-1.1z"/><path d="m851-69.4c0-2 1.6-3 4-3 1.2 0 2 .2 2.9.4v-.3c0-1.7-1-2.5-2.8-2.5-1.1 0-2 .3-2.8.7l-.4-1.1c1-.5 2-.8 3.4-.8 1.3 0 2.3.3 3 1 .6.6 1 1.5 1 2.7v5.7h-1.3v-1.4c-.6.8-1.7 1.6-3.4 1.6-1.9-.1-3.6-1.1-3.6-3zm6.8-.7v-.9c-.7-.2-1.6-.4-2.7-.4-1.7 0-2.7.8-2.7 1.9 0 1.2 1.1 1.9 2.3 1.9 1.7 0 3.1-1 3.1-2.5z"/><path d="m861.5-76h1.4v1.6c.6-1 1.6-1.8 3.2-1.8 2.3 0 3.6 1.5 3.6 3.7v5.8h-1.4v-5.4c0-1.7-.9-2.8-2.6-2.8-1.6 0-2.8 1.2-2.8 2.9v5.3h-1.4z"/><path d="m872.4-69.2v-5.6h-1.3v-1.2h1.3v-2.8h1.4v2.8h3v1.2h-3v5.4c0 1.1.6 1.5 1.6 1.5.5 0 .9-.1 1.4-.3v1.2c-.5.3-1 .4-1.7.4-1.5.1-2.7-.7-2.7-2.6z"/><path d="m697.4-45.2v-5.6h-1.3v-1.2h1.3v-2.8h1.4v2.8h3v1.2h-3v5.4c0 1.1.6 1.5 1.6 1.5.5 0 .9-.1 1.4-.3v1.2c-.5.3-1 .4-1.7.4-1.5.1-2.7-.7-2.7-2.6z"/><path d="m703-47.3c0-2.7 2.1-4.9 4.9-4.9s4.8 2.2 4.8 4.8c0 2.6-2.1 4.9-4.9 4.9s-4.8-2.2-4.8-4.8zm8.3 0c0-2-1.5-3.7-3.5-3.7s-3.4 1.6-3.4 3.6c0 2 1.5 3.6 3.4 3.6 2.1.1 3.5-1.5 3.5-3.5z"/><path d="m718.6-43.9.7-1c1 .8 2.1 1.2 3.2 1.2s1.9-.6 1.9-1.5c0-.9-1.1-1.3-2.3-1.6-1.5-.4-3.1-.9-3.1-2.6 0-1.6 1.3-2.7 3.2-2.7 1.1 0 2.4.4 3.4 1l-.6 1c-.9-.6-1.9-.9-2.8-.9-1.1 0-1.8.6-1.8 1.4 0 .9 1.2 1.2 2.4 1.6 1.4.4 3 1 3 2.7 0 1.8-1.5 2.8-3.3 2.8-1.4 0-2.9-.5-3.9-1.4z"/><path d="m727.7-55.8h1.4v5.5c.6-1 1.6-1.8 3.2-1.8 2.3 0 3.6 1.5 3.6 3.7v5.8h-1.4v-5.4c0-1.7-.9-2.8-2.6-2.8-1.6 0-2.8 1.2-2.8 2.9v5.3h-1.4z"/><path d="m737.4-45.4c0-2 1.6-3 4-3 1.2 0 2 .2 2.9.4v-.3c0-1.7-1-2.5-2.8-2.5-1.1 0-2 .3-2.8.7l-.4-1.1c1-.5 2-.8 3.4-.8 1.3 0 2.3.3 3 1 .6.6 1 1.5 1 2.7v5.7h-1.4v-1.4c-.6.8-1.7 1.6-3.4 1.6-1.7-.1-3.5-1.1-3.5-3zm6.9-.7v-.9c-.7-.2-1.6-.4-2.7-.4-1.7 0-2.7.8-2.7 1.9 0 1.2 1.1 1.9 2.3 1.9 1.7 0 3.1-1 3.1-2.5z"/><path d="m747.9-52h1.4v2.4c.7-1.5 2-2.7 3.8-2.6v1.5h-.1c-2 0-3.7 1.5-3.7 4.3v3.7h-1.4z"/><path d="m754-47.3c0-2.7 1.9-4.9 4.5-4.9 2.8 0 4.3 2.2 4.3 4.9v.4h-7.4c.2 2 1.6 3.1 3.3 3.1 1.3 0 2.2-.5 2.9-1.3l.9.8c-.9 1-2.1 1.7-3.8 1.7-2.6.1-4.7-1.8-4.7-4.7zm7.4-.6c-.1-1.7-1.1-3.2-3-3.2-1.6 0-2.8 1.4-3 3.2z"/><path d="m768.7-45.4c0-2 1.6-3 4-3 1.2 0 2 .2 2.9.4v-.3c0-1.7-1-2.5-2.8-2.5-1.1 0-2 .3-2.8.7l-.4-1.1c1-.5 2-.8 3.4-.8 1.3 0 2.3.3 3 1 .6.6 1 1.5 1 2.7v5.7h-1.3v-1.4c-.6.8-1.7 1.6-3.4 1.6-1.9-.1-3.6-1.1-3.6-3zm6.8-.7v-.9c-.7-.2-1.6-.4-2.7-.4-1.7 0-2.7.8-2.7 1.9 0 1.2 1.1 1.9 2.3 1.9 1.7 0 3.1-1 3.1-2.5z"/><path d="m778.4-43.9.7-1c1 .8 2.1 1.2 3.2 1.2s1.9-.6 1.9-1.5c0-.9-1.1-1.3-2.3-1.6-1.5-.4-3.1-.9-3.1-2.6 0-1.6 1.3-2.7 3.2-2.7 1.1 0 2.4.4 3.3 1l-.6 1c-.9-.6-1.9-.9-2.8-.9-1.1 0-1.8.6-1.8 1.4 0 .9 1.2 1.2 2.4 1.6 1.4.4 3 1 3 2.7 0 1.8-1.5 2.8-3.3 2.8-1.3 0-2.8-.5-3.8-1.4z"/><path d="m791.7-47.3c0-2.7 1.9-4.9 4.5-4.9 2.8 0 4.3 2.2 4.3 4.9v.4h-7.4c.2 2 1.6 3.1 3.3 3.1 1.3 0 2.2-.5 2.9-1.3l.9.8c-.9 1-2.1 1.7-3.8 1.7-2.6.1-4.7-1.8-4.7-4.7zm7.4-.6c-.1-1.7-1.1-3.2-3-3.2-1.6 0-2.8 1.4-3 3.2z"/><path d="m805.9-48.4 2.8-3.6h1.5l-3.5 4.6 3.7 4.8h-1.6l-2.9-3.8-2.9 3.8h-1.5l3.6-4.7-3.5-4.6h1.6z"/><path d="m811.4-47.3c0-2.7 1.9-4.9 4.5-4.9 2.8 0 4.3 2.2 4.3 4.9v.4h-7.4c.2 2 1.6 3.1 3.3 3.1 1.3 0 2.2-.5 2.9-1.3l.9.8c-.9 1-2.1 1.7-3.8 1.7-2.6.1-4.7-1.8-4.7-4.7zm7.4-.6c-.1-1.7-1.1-3.2-3-3.2-1.6 0-2.8 1.4-3 3.2z"/><path d="m822-52h1.4v2.4c.7-1.5 2-2.7 3.8-2.6v1.5h-.1c-2 0-3.7 1.5-3.7 4.3v3.7h-1.4z"/><path d="m828.1-47.3c0-2.7 2.1-4.9 4.8-4.9 1.8 0 2.9.7 3.7 1.7l-.9 1c-.7-.8-1.6-1.4-2.8-1.4-1.9 0-3.3 1.6-3.3 3.6 0 2 1.5 3.6 3.4 3.6 1.2 0 2.1-.6 2.8-1.4l.9.8c-.9 1-2.1 1.8-3.8 1.8-2.7 0-4.8-2.2-4.8-4.8z"/><path d="m838.4-55.6h1.6v1.5h-1.6zm.1 3.6h1.4v9.3h-1.4z"/><path d="m841.7-43.9.7-1c1 .8 2.1 1.2 3.2 1.2s1.9-.6 1.9-1.5c0-.9-1.1-1.3-2.3-1.6-1.5-.4-3.1-.9-3.1-2.6 0-1.6 1.3-2.7 3.2-2.7 1.1 0 2.4.4 3.3 1l-.6 1c-.9-.6-1.9-.9-2.8-.9-1.1 0-1.8.6-1.8 1.4 0 .9 1.2 1.2 2.4 1.6 1.4.4 3 1 3 2.7 0 1.8-1.5 2.8-3.3 2.8-1.3 0-2.8-.5-3.8-1.4z"/><path d="m850.2-47.3c0-2.7 1.9-4.9 4.5-4.9 2.8 0 4.3 2.2 4.3 4.9v.4h-7.4c.2 2 1.6 3.1 3.3 3.1 1.3 0 2.2-.5 2.9-1.3l.9.8c-.9 1-2.1 1.7-3.8 1.7-2.6.1-4.7-1.8-4.7-4.7zm7.4-.6c-.1-1.7-1.1-3.2-3-3.2-1.6 0-2.8 1.4-3 3.2z"/><path d="m860-43.9.7-1c1 .8 2.1 1.2 3.2 1.2s1.9-.6 1.9-1.5c0-.9-1.1-1.3-2.3-1.6-1.5-.4-3.1-.9-3.1-2.6 0-1.6 1.3-2.7 3.2-2.7 1.1 0 2.4.4 3.3 1l-.6 1c-.9-.6-1.9-.9-2.8-.9-1.1 0-1.8.6-1.8 1.4 0 .9 1.2 1.2 2.4 1.6 1.4.4 3 1 3 2.7 0 1.8-1.5 2.8-3.3 2.8-1.2 0-2.7-.5-3.8-1.4z"/><path d="m1120.1-79.4h1.3l5.7 12.7h-1.5l-1.5-3.3h-6.9l-1.5 3.3h-1.5zm3.5 8.1-2.9-6.4-2.9 6.4z"/><path d="m1128.7-71.3c0-3.1 2.2-4.9 4.4-4.9 1.7 0 2.8.9 3.6 2v-5.6h1.4v13.1h-1.4v-1.9c-.8 1.1-1.9 2.1-3.6 2.1-2.2 0-4.4-1.8-4.4-4.8zm8.1 0c0-2.2-1.6-3.6-3.4-3.6s-3.3 1.3-3.3 3.6c0 2.2 1.5 3.6 3.3 3.6s3.4-1.5 3.4-3.6z"/><path d="m1140.5-71.3c0-3.1 2.2-4.9 4.4-4.9 1.7 0 2.8.9 3.6 2v-5.6h1.4v13.1h-1.4v-1.9c-.8 1.1-1.9 2.1-3.6 2.1-2.2 0-4.4-1.8-4.4-4.8zm8.1 0c0-2.2-1.6-3.6-3.4-3.6s-3.3 1.3-3.3 3.6c0 2.2 1.5 3.6 3.3 3.6 1.7 0 3.4-1.5 3.4-3.6z"/><path d="m1158.1-76h1.4v1.9c.8-1.1 1.9-2.1 3.6-2.1 2.2 0 4.4 1.8 4.4 4.8 0 3-2.2 4.8-4.4 4.8-1.7 0-2.8-.9-3.6-2v4.7h-1.4zm8 4.7c0-2.2-1.5-3.6-3.3-3.6-1.7 0-3.4 1.5-3.4 3.6 0 2.2 1.6 3.6 3.4 3.6s3.3-1.4 3.3-3.6z"/><path d="m1170-79.8h1.4v13.1h-1.4z"/><path d="m1173.7-69.4c0-2 1.6-3 4-3 1.2 0 2 .2 2.9.4v-.3c0-1.7-1-2.5-2.8-2.5-1.1 0-2 .3-2.8.7l-.4-1.1c1-.5 2-.8 3.4-.8 1.3 0 2.3.3 3 1 .6.6 1 1.5 1 2.7v5.7h-1.3v-1.4c-.6.8-1.7 1.6-3.4 1.6-1.8-.1-3.6-1.1-3.6-3zm6.9-.7v-.9c-.7-.2-1.6-.4-2.7-.4-1.7 0-2.7.8-2.7 1.9 0 1.2 1.1 1.9 2.3 1.9 1.7 0 3.1-1 3.1-2.5z"/><path d="m1184.1-71.3c0-2.7 2.1-4.9 4.8-4.9 1.8 0 2.9.7 3.7 1.7l-.9 1c-.7-.8-1.6-1.4-2.8-1.4-1.9 0-3.3 1.6-3.3 3.6 0 2 1.5 3.6 3.4 3.6 1.2 0 2.1-.6 2.8-1.4l.9.8c-.9 1-2.1 1.8-3.8 1.8-2.7 0-4.8-2.2-4.8-4.8z"/><path d="m1194.2-71.3c0-2.7 1.9-4.9 4.5-4.9 2.8 0 4.3 2.2 4.3 4.9v.4h-7.4c.2 2 1.6 3.2 3.3 3.2 1.3 0 2.2-.5 2.9-1.3l.9.8c-.9 1-2.1 1.7-3.8 1.7-2.6 0-4.7-1.9-4.7-4.8zm7.4-.6c-.1-1.7-1.1-3.2-3-3.2-1.6 0-2.8 1.4-3 3.2z"/><path d="m1205.3-79.8h1.4v5.5c.6-1 1.6-1.8 3.2-1.8 2.3 0 3.6 1.5 3.6 3.7v5.8h-1.4v-5.4c0-1.7-.9-2.8-2.6-2.8-1.6 0-2.8 1.2-2.8 2.9v5.3h-1.4z"/><path d="m1215.7-71.3c0-2.7 2.1-4.9 4.9-4.9s4.8 2.2 4.8 4.8c0 2.6-2.1 4.9-4.9 4.9s-4.8-2.2-4.8-4.8zm8.3 0c0-2-1.5-3.7-3.5-3.7s-3.4 1.6-3.4 3.6c0 2 1.5 3.6 3.4 3.6 2 .1 3.5-1.5 3.5-3.5z"/><path d="m1227.8-79.8h1.4v13.1h-1.4z"/><path d="m1231.7-71.3c0-3.1 2.2-4.9 4.4-4.9 1.7 0 2.8.9 3.6 2v-5.6h1.4v13.1h-1.4v-1.9c-.8 1.1-1.9 2.1-3.6 2.1-2.1 0-4.4-1.8-4.4-4.8zm8.1 0c0-2.2-1.6-3.6-3.4-3.6s-3.3 1.3-3.3 3.6c0 2.2 1.5 3.6 3.3 3.6s3.4-1.5 3.4-3.6z"/><path d="m1243.5-71.3c0-2.7 1.9-4.9 4.5-4.9 2.8 0 4.3 2.2 4.3 4.9v.4h-7.4c.2 2 1.6 3.2 3.3 3.2 1.3 0 2.2-.5 2.9-1.3l.9.8c-.9 1-2.1 1.7-3.8 1.7-2.6 0-4.7-1.9-4.7-4.8zm7.4-.6c-.1-1.7-1.1-3.2-3-3.2-1.6 0-2.8 1.4-3 3.2z"/><path d="m1254.6-76h1.4v2.4c.7-1.5 2-2.7 3.8-2.6v1.5h-.1c-2 0-3.7 1.5-3.7 4.3v3.7h-1.4z"/><path d="m1260.9-67.9.7-1c1 .8 2.1 1.2 3.2 1.2s1.9-.6 1.9-1.5c0-.9-1.1-1.3-2.3-1.6-1.5-.4-3.1-.9-3.1-2.6 0-1.6 1.3-2.7 3.2-2.7 1.1 0 2.4.4 3.3 1l-.6 1c-.9-.6-1.9-.9-2.8-.9-1.1 0-1.8.6-1.8 1.3 0 .9 1.2 1.2 2.4 1.6 1.4.4 3 1 3 2.7 0 1.8-1.5 2.8-3.3 2.8-1.3.1-2.7-.4-3.8-1.3z"/><path d="m1115.7-50.8h-1.3v-1.2h1.3v-.8c0-1.1.3-1.9.8-2.4s1.2-.7 2-.7c.6 0 1.1.1 1.5.2v1.2c-.5-.1-.9-.2-1.4-.2-1.1 0-1.6.6-1.6 2v.8h3v1.2h-2.9v8.1h-1.4z"/><path d="m1121.1-47.3c0-2.7 2.1-4.9 4.9-4.9s4.8 2.2 4.8 4.8c0 2.6-2.1 4.9-4.9 4.9s-4.8-2.2-4.8-4.8zm8.3 0c0-2-1.5-3.7-3.5-3.7s-3.4 1.6-3.4 3.6c0 2 1.5 3.6 3.4 3.6 2.1.1 3.5-1.5 3.5-3.5z"/><path d="m1133.1-52h1.4v2.4c.7-1.5 2-2.7 3.8-2.6v1.5h-.1c-2 0-3.7 1.5-3.7 4.3v3.7h-1.4z"/><path d="m1145.6-55.8h1.4v13.1h-1.4z"/><path d="m1149.5-47.3c0-2.7 1.9-4.9 4.5-4.9 2.8 0 4.3 2.2 4.3 4.9v.4h-7.4c.2 2 1.6 3.2 3.3 3.2 1.3 0 2.2-.5 2.9-1.3l.9.8c-.9 1-2.1 1.7-3.8 1.7-2.6 0-4.7-1.9-4.7-4.8zm7.4-.6c-.1-1.7-1.1-3.2-3-3.2-1.6 0-2.8 1.4-3 3.2z"/><path d="m1159.9-45.4c0-2 1.6-3 4-3 1.2 0 2 .2 2.9.4v-.3c0-1.7-1-2.5-2.8-2.5-1.1 0-2 .3-2.8.7l-.4-1.1c1-.5 2-.8 3.4-.8 1.3 0 2.3.3 3 1 .6.6 1 1.5 1 2.7v5.7h-1.3v-1.4c-.6.8-1.7 1.6-3.4 1.6-1.9-.1-3.6-1.1-3.6-3zm6.8-.7v-.9c-.7-.2-1.6-.4-2.7-.4-1.7 0-2.7.8-2.7 1.9 0 1.2 1.1 1.9 2.3 1.9 1.7 0 3.1-1 3.1-2.5z"/><path d="m1170.8-52h1.4v2.4c.7-1.5 2-2.7 3.8-2.6v1.5h-.1c-2 0-3.7 1.5-3.7 4.3v3.7h-1.4z"/><path d="m1177.9-52h1.4v1.6c.6-1 1.6-1.8 3.2-1.8 2.3 0 3.6 1.5 3.6 3.7v5.8h-1.4v-5.4c0-1.7-.9-2.8-2.6-2.8-1.6 0-2.8 1.2-2.8 2.9v5.3h-1.4z"/><path d="m1188.3-47.3c0-2.7 1.9-4.9 4.5-4.9 2.8 0 4.3 2.2 4.3 4.9v.4h-7.4c.2 2 1.6 3.2 3.3 3.2 1.3 0 2.2-.5 2.9-1.3l.9.8c-.9 1-2.1 1.7-3.8 1.7-2.6 0-4.7-1.9-4.7-4.8zm7.4-.6c-.1-1.7-1.1-3.2-3-3.2-1.6 0-2.8 1.4-3 3.2z"/><path d="m1199.4-52h1.4v2.4c.7-1.5 2-2.7 3.8-2.6v1.5h-.1c-2 0-3.7 1.5-3.7 4.3v3.7h-1.4z"/><path d="m1205.7-43.9.7-1c1 .8 2.1 1.2 3.2 1.2s1.9-.6 1.9-1.5c0-.9-1.1-1.3-2.3-1.6-1.5-.4-3.1-.9-3.1-2.6 0-1.6 1.3-2.7 3.2-2.7 1.1 0 2.4.4 3.3 1l-.6 1c-.9-.6-1.9-.9-2.8-.9-1.1 0-1.8.6-1.8 1.4 0 .9 1.2 1.2 2.4 1.6 1.4.4 3 1 3 2.7 0 1.8-1.5 2.8-3.3 2.8-1.3 0-2.7-.5-3.8-1.4z"/><path d="m1221-45.2v-5.6h-1.3v-1.2h1.3v-2.8h1.4v2.8h3v1.2h-3v5.4c0 1.1.6 1.5 1.6 1.5.5 0 .9-.1 1.4-.3v1.2c-.5.3-1 .4-1.7.4-1.5.1-2.7-.7-2.7-2.6z"/><path d="m1227.1-47.3c0-2.7 2.1-4.9 4.9-4.9s4.8 2.2 4.8 4.8c0 2.6-2.1 4.9-4.9 4.9s-4.8-2.2-4.8-4.8zm8.2 0c0-2-1.5-3.7-3.5-3.7s-3.4 1.6-3.4 3.6c0 2 1.5 3.6 3.4 3.6 2.1.1 3.5-1.5 3.5-3.5z"/><path d="m1243.8-47.3c0-2.7 2.1-4.9 4.8-4.9 1.8 0 2.9.7 3.7 1.7l-.9 1c-.7-.8-1.6-1.4-2.8-1.4-1.9 0-3.3 1.6-3.3 3.6 0 2 1.5 3.6 3.4 3.6 1.2 0 2.1-.6 2.8-1.4l.9.8c-.9 1-2.1 1.8-3.8 1.8-2.8 0-4.8-2.2-4.8-4.8z"/><path d="m1253.9-47.3c0-2.7 2.1-4.9 4.9-4.9s4.8 2.2 4.8 4.8c0 2.6-2.1 4.9-4.9 4.9s-4.8-2.2-4.8-4.8zm8.3 0c0-2-1.5-3.7-3.5-3.7s-3.4 1.6-3.4 3.6c0 2 1.5 3.6 3.4 3.6 2.1.1 3.5-1.5 3.5-3.5z"/><path d="m1265.9-52h1.4v1.6c.6-.9 1.4-1.8 3-1.8 1.5 0 2.5.8 3 1.9.7-1 1.7-1.9 3.3-1.9 2.1 0 3.5 1.4 3.5 3.7v5.8h-1.4v-5.4c0-1.8-.9-2.8-2.4-2.8-1.4 0-2.6 1-2.6 2.9v5.4h-1.4v-5.5c0-1.7-.9-2.8-2.4-2.8s-2.6 1.2-2.6 2.9v5.3h-1.4z"/><path d="m1282.9-52h1.4v1.9c.8-1.1 1.9-2.1 3.6-2.1 2.2 0 4.4 1.8 4.4 4.8 0 3-2.2 4.8-4.4 4.8-1.7 0-2.8-.9-3.6-2v4.7h-1.4zm8 4.7c0-2.2-1.5-3.6-3.3-3.6-1.7 0-3.4 1.5-3.4 3.6 0 2.2 1.6 3.6 3.4 3.6s3.3-1.4 3.3-3.6z"/><path d="m1294.8-55.8h1.4v13.1h-1.4z"/><path d="m1298.7-47.3c0-2.7 1.9-4.9 4.5-4.9 2.8 0 4.3 2.2 4.3 4.9v.4h-7.4c.2 2 1.6 3.2 3.3 3.2 1.3 0 2.2-.5 2.9-1.3l.9.8c-.9 1-2.1 1.7-3.8 1.7-2.6 0-4.7-1.9-4.7-4.8zm7.4-.6c-.1-1.7-1.1-3.2-3-3.2-1.6 0-2.8 1.4-3 3.2z"/><path d="m1310.2-45.2v-5.6h-1.3v-1.2h1.3v-2.8h1.4v2.8h3v1.2h-3v5.4c0 1.1.6 1.5 1.6 1.5.5 0 .9-.1 1.4-.3v1.2c-.5.3-1 .4-1.7.4-1.5.1-2.7-.7-2.7-2.6z"/><path d="m1316.3-47.3c0-2.7 1.9-4.9 4.5-4.9 2.8 0 4.3 2.2 4.3 4.9v.4h-7.4c.2 2 1.6 3.2 3.3 3.2 1.3 0 2.2-.5 2.9-1.3l.9.8c-.9 1-2.1 1.7-3.8 1.7-2.6 0-4.7-1.9-4.7-4.8zm7.4-.6c-.1-1.7-1.1-3.2-3-3.2-1.6 0-2.8 1.4-3 3.2z"/><path d="m1113.1 240.2h1.3l5.7 12.7h-1.5l-1.5-3.3h-6.9l-1.5 3.3h-1.5zm3.6 8.1-2.9-6.4-2.9 6.4z"/><path d="m1121.5 248.3c0-3.1 2.2-4.9 4.4-4.9 1.7 0 2.8.9 3.6 2v-5.6h1.4v13.1h-1.4v-1.9c-.8 1.1-1.9 2.1-3.6 2.1-2.2 0-4.4-1.8-4.4-4.8zm8.1 0c0-2.2-1.6-3.6-3.4-3.6s-3.3 1.3-3.3 3.6c0 2.2 1.5 3.6 3.3 3.6 1.7 0 3.4-1.5 3.4-3.6z"/><path d="m1133 248.3c0-3.1 2.2-4.9 4.4-4.9 1.7 0 2.8.9 3.6 2v-5.6h1.4v13.1h-1.4v-1.9c-.8 1.1-1.9 2.1-3.6 2.1-2.2 0-4.4-1.8-4.4-4.8zm8.1 0c0-2.2-1.6-3.6-3.4-3.6s-3.3 1.3-3.3 3.6c0 2.2 1.5 3.6 3.3 3.6 1.7 0 3.4-1.5 3.4-3.6z"/><path d="m1149.5 248.3c0-2.7 1.9-4.9 4.5-4.9 2.8 0 4.3 2.2 4.3 4.9v.5h-7.4c.2 2 1.6 3.2 3.3 3.2 1.3 0 2.2-.5 2.9-1.3l.9.8c-.9 1-2.1 1.7-3.8 1.7-2.7-.1-4.7-2-4.7-4.9zm7.4-.6c-.1-1.7-1.1-3.2-3-3.2-1.6 0-2.8 1.4-3 3.2z"/><path d="m1163.9 247.2 2.8-3.6h1.5l-3.5 4.6 3.7 4.8h-1.6l-2.9-3.8-2.9 3.8h-1.5l3.6-4.7-3.5-4.6h1.6z"/><path d="m1169.6 248.3c0-2.7 1.9-4.9 4.5-4.9 2.8 0 4.3 2.2 4.3 4.9v.5h-7.4c.2 2 1.6 3.2 3.3 3.2 1.3 0 2.2-.5 2.9-1.3l.9.8c-.9 1-2.1 1.7-3.8 1.7-2.6-.1-4.7-2-4.7-4.9zm7.4-.6c-.1-1.7-1.1-3.2-3-3.2-1.6 0-2.8 1.4-3 3.2z"/><path d="m1180.4 243.6h1.4v2.4c.7-1.5 2-2.7 3.8-2.6v1.5h-.1c-2 0-3.7 1.5-3.7 4.3v3.7h-1.4z"/><path d="m1186.7 248.3c0-2.7 2.1-4.9 4.8-4.9 1.8 0 2.9.7 3.7 1.7l-.9 1c-.7-.8-1.6-1.4-2.8-1.4-1.9 0-3.3 1.6-3.3 3.6 0 2 1.5 3.6 3.4 3.6 1.2 0 2.1-.6 2.8-1.4l.9.8c-.9 1-2.1 1.8-3.8 1.8-2.8 0-4.8-2.2-4.8-4.8z"/><path d="m1197.1 240h1.6v1.5h-1.6zm.1 3.6h1.4v9.3h-1.4z"/><path d="m1200.6 251.7.7-1c1 .8 2.1 1.2 3.2 1.2s1.9-.6 1.9-1.5c0-.9-1.1-1.3-2.3-1.6-1.5-.4-3.1-.9-3.1-2.6 0-1.6 1.3-2.7 3.2-2.7 1.1 0 2.4.4 3.3 1l-.6 1c-.9-.6-1.9-.9-2.8-.9-1.1 0-1.8.6-1.8 1.4 0 .9 1.2 1.2 2.4 1.6 1.4.4 3 1 3 2.7 0 1.8-1.5 2.8-3.3 2.8-1.3 0-2.7-.5-3.8-1.4z"/><path d="m1209.3 248.3c0-2.7 1.9-4.9 4.5-4.9 2.8 0 4.3 2.2 4.3 4.9v.5h-7.4c.2 2 1.6 3.2 3.3 3.2 1.3 0 2.2-.5 2.9-1.3l.9.8c-.9 1-2.1 1.7-3.8 1.7-2.6-.1-4.7-2-4.7-4.9zm7.4-.6c-.1-1.7-1.1-3.2-3-3.2-1.6 0-2.8 1.4-3 3.2z"/><path d="m1224.6 248.3c0-3.1 2.2-4.9 4.4-4.9 1.7 0 2.8.9 3.6 2v-5.6h1.4v13.1h-1.4v-1.9c-.8 1.1-1.9 2.1-3.6 2.1-2.2 0-4.4-1.8-4.4-4.8zm8 0c0-2.2-1.6-3.6-3.4-3.6s-3.3 1.3-3.3 3.6c0 2.2 1.5 3.6 3.3 3.6s3.4-1.5 3.4-3.6z"/><path d="m1236.1 248.3c0-2.7 1.9-4.9 4.5-4.9 2.8 0 4.3 2.2 4.3 4.9v.5h-7.4c.2 2 1.6 3.2 3.3 3.2 1.3 0 2.2-.5 2.9-1.3l.9.8c-.9 1-2.1 1.7-3.8 1.7-2.7-.1-4.7-2-4.7-4.9zm7.4-.6c-.1-1.7-1.1-3.2-3-3.2-1.6 0-2.8 1.4-3 3.2z"/><path d="m1246.1 251.7.7-1c1 .8 2.1 1.2 3.2 1.2s1.9-.6 1.9-1.5c0-.9-1.1-1.3-2.3-1.6-1.5-.4-3.1-.9-3.1-2.6 0-1.6 1.3-2.7 3.2-2.7 1.1 0 2.4.4 3.3 1l-.6 1c-.9-.6-1.9-.9-2.8-.9-1.1 0-1.8.6-1.8 1.4 0 .9 1.2 1.2 2.4 1.6 1.4.4 3 1 3 2.7 0 1.8-1.5 2.8-3.3 2.8-1.3 0-2.8-.5-3.8-1.4z"/><path d="m1254.8 248.3c0-2.7 2.1-4.9 4.8-4.9 1.8 0 2.9.7 3.7 1.7l-.9 1c-.7-.8-1.6-1.4-2.8-1.4-1.9 0-3.3 1.6-3.3 3.6 0 2 1.5 3.6 3.4 3.6 1.2 0 2.1-.6 2.8-1.4l.9.8c-.9 1-2.1 1.8-3.8 1.8-2.7 0-4.8-2.2-4.8-4.8z"/><path d="m1265.2 243.6h1.4v2.4c.7-1.5 2-2.7 3.8-2.6v1.5h-.1c-2 0-3.7 1.5-3.7 4.3v3.7h-1.4z"/><path d="m1272.1 240h1.6v1.5h-1.6zm.1 3.6h1.4v9.3h-1.4z"/><path d="m1276.4 243.6h1.4v1.9c.8-1.1 1.9-2.1 3.6-2.1 2.2 0 4.4 1.8 4.4 4.8 0 3-2.2 4.8-4.4 4.8-1.7 0-2.8-.9-3.6-2v4.7h-1.4zm8 4.7c0-2.2-1.5-3.6-3.3-3.6-1.7 0-3.4 1.5-3.4 3.6 0 2.2 1.6 3.6 3.4 3.6s3.3-1.4 3.3-3.6z"/><path d="m1288.4 250.4v-5.6h-1.3v-1.2h1.3v-2.8h1.4v2.8h3v1.2h-3v5.4c0 1.1.6 1.5 1.6 1.5.5 0 .9-.1 1.4-.3v1.2c-.5.3-1 .4-1.7.4-1.6.1-2.7-.7-2.7-2.6z"/><path d="m1294.8 240h1.6v1.5h-1.6zm.1 3.6h1.4v9.3h-1.4z"/><path d="m1298.5 248.3c0-2.7 2.1-4.9 4.9-4.9s4.8 2.2 4.8 4.8c0 2.6-2.1 4.9-4.9 4.9s-4.8-2.2-4.8-4.8zm8.3 0c0-2-1.5-3.7-3.5-3.7s-3.4 1.6-3.4 3.6c0 2 1.5 3.6 3.4 3.6 2.1.1 3.5-1.5 3.5-3.5z"/><path d="m1310.3 243.6h1.4v1.6c.6-1 1.6-1.8 3.2-1.8 2.3 0 3.6 1.5 3.6 3.7v5.8h-1.4v-5.4c0-1.7-.9-2.8-2.6-2.8-1.6 0-2.8 1.2-2.8 2.9v5.3h-1.4z"/><path d="m1320.1 251.7.7-1c1 .8 2.1 1.2 3.2 1.2s1.9-.6 1.9-1.5c0-.9-1.1-1.3-2.3-1.6-1.5-.4-3.1-.9-3.1-2.6 0-1.6 1.3-2.7 3.2-2.7 1.1 0 2.4.4 3.3 1l-.6 1c-.9-.6-1.9-.9-2.8-.9-1.1 0-1.8.6-1.8 1.4 0 .9 1.2 1.2 2.4 1.6 1.4.4 3 1 3 2.7 0 1.8-1.5 2.8-3.3 2.8-1.2 0-2.7-.5-3.8-1.4z"/><path d="m1108.3 264h1.6v1.5h-1.6zm.1 3.6h1.4v9.3h-1.4z"/><path d="m1112.5 267.6h1.4v1.6c.6-1 1.6-1.8 3.2-1.8 2.3 0 3.6 1.5 3.6 3.7v5.8h-1.4v-5.4c0-1.7-.9-2.8-2.6-2.8-1.6 0-2.8 1.2-2.8 2.9v5.3h-1.4z"/><path d="m1128.4 264.3h1.4v5.6h7.3v-5.6h1.4v12.6h-1.4v-5.7h-7.3v5.7h-1.4z"/><path d="m1145 265.6h-4.2v-1.3h9.9v1.3h-4.2v11.3h-1.4z"/><path d="m1152.9 264.3h1.4l4.6 6.9 4.6-6.9h1.4v12.6h-1.4v-10.2l-4.6 6.8h-.1l-4.6-6.7v10.2h-1.4z"/><path d="m1168.1 264.3h1.4v11.3h7.1v1.3h-8.5z"/><path d="m1182.9 272.3c0-2.7 2.1-4.9 4.9-4.9s4.8 2.2 4.8 4.8c0 2.6-2.1 4.9-4.9 4.9-2.7 0-4.8-2.2-4.8-4.8zm8.3 0c0-2-1.5-3.7-3.5-3.7s-3.4 1.6-3.4 3.6c0 2 1.5 3.6 3.4 3.6 2.1.1 3.5-1.5 3.5-3.5z"/><path d="m1194.7 267.6h1.4v2.4c.7-1.5 2-2.7 3.8-2.6v1.5h-.1c-2 0-3.7 1.5-3.7 4.3v3.7h-1.4z"/><path d="m1206.8 264.3h1.4l4.6 6.9 4.6-6.9h1.4v12.6h-1.4v-10.2l-4.6 6.8h-.1l-4.6-6.7v10.2h-1.4z"/><path d="m1221 274.2c0-2 1.6-3 4-3 1.2 0 2 .2 2.9.4v-.3c0-1.7-1-2.5-2.8-2.5-1.1 0-2 .3-2.8.7l-.4-1.1c1-.5 2-.8 3.4-.8 1.3 0 2.3.3 3 1 .6.6 1 1.5 1 2.7v5.7h-1.3v-1.4c-.6.8-1.7 1.6-3.4 1.6-1.8-.1-3.6-1.1-3.6-3zm6.9-.7v-.9c-.7-.2-1.6-.4-2.7-.4-1.7 0-2.7.8-2.7 1.9 0 1.2 1.1 1.9 2.3 1.9 1.7 0 3.1-1 3.1-2.5z"/><path d="m1231.7 267.6h1.4v2.4c.7-1.5 2-2.7 3.8-2.6v1.5h-.1c-2 0-3.7 1.5-3.7 4.3v3.7h-1.4z"/><path d="m1238.6 263.8h1.4v9.1l5-5.2h1.7l-3.9 4 4 5.3h-1.7l-3.3-4.3-1.9 1.9v2.4h-1.4v-13.2z"/><path d="m1247.8 272.3c0-3.1 2.2-4.9 4.4-4.9 1.7 0 2.8.9 3.6 2v-5.6h1.4v13.1h-1.4v-1.9c-.8 1.1-1.9 2.1-3.6 2.1-2.1 0-4.4-1.8-4.4-4.8zm8.1 0c0-2.2-1.6-3.6-3.4-3.6s-3.3 1.3-3.3 3.6c0 2.2 1.5 3.6 3.3 3.6s3.4-1.5 3.4-3.6z"/><path d="m1259.3 272.3c0-2.7 2.1-4.9 4.9-4.9s4.8 2.2 4.8 4.8c0 2.6-2.1 4.9-4.9 4.9-2.7 0-4.8-2.2-4.8-4.8zm8.3 0c0-2-1.5-3.7-3.5-3.7s-3.4 1.6-3.4 3.6c0 2 1.5 3.6 3.4 3.6 2.1.1 3.5-1.5 3.5-3.5z"/><path d="m1270.3 267.6h1.5l2.4 7.5 2.5-7.5h1.2l2.5 7.5 2.4-7.5h1.4l-3.3 9.4h-1.2l-2.5-7.3-2.5 7.3h-1.2z"/><path d="m1286.2 267.6h1.4v1.6c.6-1 1.6-1.8 3.2-1.8 2.3 0 3.6 1.5 3.6 3.7v5.8h-1.4v-5.4c0-1.7-.9-2.8-2.6-2.8-1.6 0-2.8 1.2-2.8 2.9v5.3h-1.4z"/><path d="m684.4 247.5h1.5l3.6 10.5 3.5-10.5h1.2l3.5 10.5 3.6-10.5h1.5l-4.5 12.7h-1.2l-3.5-10.2-3.5 10.2h-1.2z"/><path d="m704.4 250.8h1.4v2.4c.7-1.5 2-2.7 3.8-2.6v1.5h-.1c-2 0-3.7 1.5-3.7 4.3v3.7h-1.4z"/><path d="m711.1 247.3h1.6v1.5h-1.6zm.1 3.5h1.4v9.3h-1.4z"/><path d="m715.6 257.7v-5.7h-1.3v-1.2h1.3v-2.8h1.4v2.8h3v1.2h-3v5.4c0 1.1.6 1.5 1.6 1.5.5 0 .9-.1 1.4-.3v1.2c-.5.3-1 .4-1.7.4-1.5.1-2.7-.7-2.7-2.5z"/><path d="m721.2 255.5c0-2.7 1.9-4.9 4.5-4.9 2.8 0 4.3 2.2 4.3 4.9v.5h-7.4c.2 2 1.6 3.2 3.3 3.2 1.3 0 2.2-.5 2.9-1.3l.9.8c-.9 1-2.1 1.7-3.8 1.7-2.6-.1-4.7-2-4.7-4.9zm7.4-.5c-.1-1.7-1.1-3.2-3-3.2-1.6 0-2.8 1.4-3 3.2z"/><path d="m736 255.5c0-2.7 2.1-4.9 4.8-4.9 1.8 0 2.9.7 3.7 1.7l-.9 1c-.7-.8-1.6-1.4-2.8-1.4-1.9 0-3.3 1.6-3.3 3.6 0 2 1.5 3.6 3.4 3.6 1.2 0 2.1-.6 2.8-1.4l.9.8c-.9 1-2.1 1.8-3.8 1.8-2.7 0-4.8-2.2-4.8-4.8z"/><path d="m746.1 256.6v-5.8h1.4v5.4c0 1.7.9 2.8 2.6 2.8 1.6 0 2.8-1.2 2.8-2.9v-5.3h1.4v9.3h-1.4v-1.6c-.6 1-1.6 1.8-3.2 1.8-2.3 0-3.6-1.5-3.6-3.7z"/><path d="m755.9 258.9.7-1c1 .8 2.1 1.2 3.2 1.2s1.9-.6 1.9-1.5c0-.9-1.1-1.3-2.3-1.6-1.5-.4-3.1-.9-3.1-2.6 0-1.6 1.3-2.7 3.2-2.7 1.1 0 2.4.4 3.3 1l-.6 1c-.9-.6-1.9-.9-2.8-.9-1.1 0-1.8.6-1.8 1.4 0 .9 1.2 1.2 2.4 1.6 1.4.4 3 1 3 2.7 0 1.8-1.5 2.8-3.3 2.8-1.2 0-2.7-.5-3.8-1.4z"/><path d="m765.5 257.7v-5.7h-1.3v-1.2h1.3v-2.8h1.4v2.8h3v1.2h-3v5.4c0 1.1.6 1.5 1.6 1.5.5 0 .9-.1 1.4-.3v1.2c-.5.3-1 .4-1.7.4-1.5.1-2.7-.7-2.7-2.5z"/><path d="m771.1 255.5c0-2.7 2.1-4.9 4.9-4.9s4.8 2.2 4.8 4.8c0 2.6-2.1 4.9-4.9 4.9s-4.8-2.2-4.8-4.8zm8.3 0c0-2-1.5-3.7-3.5-3.7s-3.4 1.6-3.4 3.6c0 2 1.5 3.6 3.4 3.6 2.1.1 3.5-1.5 3.5-3.5z"/><path d="m782.7 250.8h1.4v1.6c.6-.9 1.4-1.8 3-1.8 1.5 0 2.5.8 3 1.9.7-1 1.7-1.9 3.3-1.9 2.1 0 3.5 1.4 3.5 3.7v5.8h-1.4v-5.4c0-1.8-.9-2.8-2.4-2.8-1.4 0-2.6 1-2.6 2.9v5.4h-1.4v-5.5c0-1.7-.9-2.8-2.4-2.8s-2.6 1.2-2.6 2.9v5.3h-1.4z"/><path d="m804.4 257.7v-5.7h-1.3v-1.2h1.3v-2.8h1.4v2.8h3v1.2h-3v5.4c0 1.1.6 1.5 1.6 1.5.5 0 .9-.1 1.4-.3v1.2c-.5.3-1 .4-1.7.4-1.5.1-2.7-.7-2.7-2.5z"/><path d="m810 255.5c0-2.7 1.9-4.9 4.5-4.9 2.8 0 4.3 2.2 4.3 4.9v.5h-7.4c.2 2 1.6 3.2 3.3 3.2 1.3 0 2.2-.5 2.9-1.3l.9.8c-.9 1-2.1 1.7-3.8 1.7-2.6-.1-4.7-2-4.7-4.9zm7.4-.5c-.1-1.7-1.1-3.2-3-3.2-1.6 0-2.8 1.4-3 3.2z"/><path d="m819.8 258.9.7-1c1 .8 2.1 1.2 3.2 1.2s1.9-.6 1.9-1.5c0-.9-1.1-1.3-2.3-1.6-1.5-.4-3.1-.9-3.1-2.6 0-1.6 1.3-2.7 3.2-2.7 1.1 0 2.4.4 3.3 1l-.6 1c-.9-.6-1.9-.9-2.8-.9-1.1 0-1.8.6-1.8 1.4 0 .9 1.2 1.2 2.4 1.6 1.4.4 3 1 3 2.7 0 1.8-1.5 2.8-3.3 2.8-1.3 0-2.7-.5-3.8-1.4z"/><path d="m829.4 257.7v-5.7h-1.3v-1.2h1.3v-2.8h1.4v2.8h3v1.2h-3v5.4c0 1.1.6 1.5 1.6 1.5.5 0 .9-.1 1.4-.3v1.2c-.5.3-1 .4-1.7.4-1.5.1-2.7-.7-2.7-2.5z"/><path d="m834.8 258.9.7-1c1 .8 2.1 1.2 3.2 1.2s1.9-.6 1.9-1.5c0-.9-1.1-1.3-2.3-1.6-1.5-.4-3.1-.9-3.1-2.6 0-1.6 1.3-2.7 3.2-2.7 1.1 0 2.4.4 3.3 1l-.6 1c-.9-.6-1.9-.9-2.8-.9-1.1 0-1.8.6-1.8 1.4 0 .9 1.2 1.2 2.4 1.6 1.4.4 3 1 3 2.7 0 1.8-1.5 2.8-3.3 2.8-1.3 0-2.8-.5-3.8-1.4z"/><path d="m849.2 257.7v-5.7h-1.3v-1.2h1.3v-2.8h1.4v2.8h3v1.2h-3v5.4c0 1.1.6 1.5 1.6 1.5.5 0 .9-.1 1.4-.3v1.2c-.5.3-1 .4-1.7.4-1.6.1-2.7-.7-2.7-2.5z"/><path d="m854.7 255.5c0-2.7 2.1-4.9 4.9-4.9s4.8 2.2 4.8 4.8c0 2.6-2.1 4.9-4.9 4.9-2.7 0-4.8-2.2-4.8-4.8zm8.3 0c0-2-1.5-3.7-3.5-3.7s-3.4 1.6-3.4 3.6c0 2 1.5 3.6 3.4 3.6 2.1.1 3.5-1.5 3.5-3.5z"/><path d="m870.4 257.4c0-2 1.6-3 4-3 1.2 0 2 .2 2.9.4v-.3c0-1.7-1-2.5-2.8-2.5-1.1 0-2 .3-2.8.7l-.4-1.1c1-.5 2-.8 3.4-.8 1.3 0 2.3.3 3 1 .6.6 1 1.5 1 2.7v5.7h-1.3v-1.4c-.6.8-1.7 1.6-3.4 1.6-1.9-.1-3.6-1.1-3.6-3zm6.8-.7v-.9c-.7-.2-1.6-.4-2.7-.4-1.7 0-2.7.8-2.7 1.9 0 1.2 1.1 1.9 2.3 1.9 1.7 0 3.1-1 3.1-2.5z"/><path d="m880.7 256.6v-5.8h1.4v5.4c0 1.7.9 2.8 2.6 2.8 1.6 0 2.8-1.2 2.8-2.9v-5.3h1.4v9.3h-1.4v-1.6c-.6 1-1.6 1.8-3.2 1.8-2.2 0-3.6-1.5-3.6-3.7z"/><path d="m891.8 257.7v-5.7h-1.3v-1.2h1.3v-2.8h1.4v2.8h3v1.2h-3v5.4c0 1.1.6 1.5 1.6 1.5.5 0 .9-.1 1.4-.3v1.2c-.5.3-1 .4-1.7.4-1.5.1-2.7-.7-2.7-2.5z"/><path d="m897.4 255.5c0-2.7 2.1-4.9 4.9-4.9s4.8 2.2 4.8 4.8c0 2.6-2.1 4.9-4.9 4.9s-4.8-2.2-4.8-4.8zm8.3 0c0-2-1.5-3.7-3.5-3.7s-3.4 1.6-3.4 3.6c0 2 1.5 3.6 3.4 3.6 2.1.1 3.5-1.5 3.5-3.5z"/><path d="m909 250.8h1.4v1.6c.6-.9 1.4-1.8 3-1.8 1.5 0 2.5.8 3 1.9.7-1 1.7-1.9 3.3-1.9 2.1 0 3.5 1.4 3.5 3.7v5.8h-1.4v-5.4c0-1.8-.9-2.8-2.4-2.8-1.4 0-2.6 1-2.6 2.9v5.4h-1.4v-5.5c0-1.7-.9-2.8-2.4-2.8s-2.6 1.2-2.6 2.9v5.3h-1.4z"/><path d="m924.8 257.4c0-2 1.6-3 4-3 1.2 0 2 .2 2.9.4v-.3c0-1.7-1-2.5-2.8-2.5-1.1 0-2 .3-2.8.7l-.4-1.1c1-.5 2-.8 3.4-.8 1.3 0 2.3.3 3 1 .6.6 1 1.5 1 2.7v5.7h-1.3v-1.4c-.6.8-1.7 1.6-3.4 1.6-1.9-.1-3.6-1.1-3.6-3zm6.8-.7v-.9c-.7-.2-1.6-.4-2.7-.4-1.7 0-2.7.8-2.7 1.9 0 1.2 1.1 1.9 2.3 1.9 1.7 0 3.1-1 3.1-2.5z"/><path d="m935.7 257.7v-5.7h-1.3v-1.2h1.3v-2.8h1.4v2.8h3v1.2h-3v5.4c0 1.1.6 1.5 1.6 1.5.5 0 .9-.1 1.4-.3v1.2c-.5.3-1 .4-1.7.4-1.5.1-2.7-.7-2.7-2.5z"/><path d="m941.9 247.3h1.6v1.5h-1.6zm.1 3.5h1.4v9.3h-1.4z"/><path d="m945.4 255.5c0-2.7 2.1-4.9 4.8-4.9 1.8 0 2.9.7 3.7 1.7l-.9 1c-.7-.8-1.6-1.4-2.8-1.4-1.9 0-3.3 1.6-3.3 3.6 0 2 1.5 3.6 3.4 3.6 1.2 0 2.1-.6 2.8-1.4l.9.8c-.9 1-2.1 1.8-3.8 1.8-2.7 0-4.8-2.2-4.8-4.8z"/><path d="m955 257.4c0-2 1.6-3 4-3 1.2 0 2 .2 2.9.4v-.3c0-1.7-1-2.5-2.8-2.5-1.1 0-2 .3-2.8.7l-.4-1.1c1-.5 2-.8 3.4-.8 1.3 0 2.3.3 3 1 .6.6 1 1.5 1 2.7v5.7h-1.3v-1.4c-.6.8-1.7 1.6-3.4 1.6-1.9-.1-3.6-1.1-3.6-3zm6.8-.7v-.9c-.7-.2-1.6-.4-2.7-.4-1.7 0-2.7.8-2.7 1.9 0 1.2 1.1 1.9 2.3 1.9 1.7 0 3.1-1 3.1-2.5z"/><path d="m965.6 247h1.4v13.1h-1.4z"/><path d="m969.7 247h1.4v13.1h-1.4z"/><path d="m980.6 250.8h1.5l-3.9 9.6c-.8 1.9-1.7 2.6-3.1 2.6-.8 0-1.4-.2-2-.5l.5-1.1c.5.2.9.3 1.5.3.8 0 1.4-.4 1.9-1.7l-4.2-9.3h1.5l3.4 7.8z"/><path d="m684.2 274.8h1.5l3.1 7.7 3.1-7.7h1.5l-4.1 9.4h-1.2z"/><path d="m694.5 279.5c0-2.7 1.9-4.9 4.5-4.9 2.8 0 4.3 2.2 4.3 4.9v.5h-7.4c.2 2 1.6 3.2 3.3 3.2 1.3 0 2.2-.5 2.9-1.3l.9.8c-.9 1-2.1 1.7-3.8 1.7-2.7-.1-4.7-2-4.7-4.9zm7.4-.5c-.1-1.7-1.1-3.2-3-3.2-1.6 0-2.8 1.4-3 3.2z"/><path d="m705.1 274.8h1.4v2.4c.7-1.5 2-2.7 3.8-2.6v1.5h-.1c-2 0-3.7 1.5-3.7 4.3v3.7h-1.4z"/><path d="m711.8 271.3h1.6v1.5h-1.6zm0 3.5h1.4v9.3h-1.4z"/><path d="m716.3 276h-1.3v-1.2h1.3v-.8c0-1.1.3-1.9.8-2.4s1.2-.7 2-.7c.6 0 1.1.1 1.5.2v1.2c-.5-.1-.9-.2-1.4-.2-1.1 0-1.6.6-1.6 2v.8h3v1.2h-2.9v8.1h-1.4z"/><path d="m728.8 274.8h1.5l-3.9 9.6c-.8 1.9-1.7 2.6-3.1 2.6-.8 0-1.4-.2-2-.5l.5-1.1c.5.2.9.3 1.5.3.8 0 1.3-.4 1.9-1.7l-4.2-9.3h1.5l3.4 7.8z"/><path d="m737.1 281.7v-5.7h-1.3v-1.2h1.3v-2.8h1.4v2.8h3v1.2h-3v5.4c0 1.1.6 1.5 1.6 1.5.5 0 .9-.1 1.4-.3v1.2c-.5.3-1 .4-1.7.4-1.6.1-2.7-.7-2.7-2.5z"/><path d="m743.2 271h1.4v5.5c.6-1 1.6-1.8 3.2-1.8 2.3 0 3.6 1.5 3.6 3.7v5.8h-1.4v-5.4c0-1.7-.9-2.8-2.6-2.8-1.6 0-2.8 1.2-2.8 2.9v5.3h-1.4z"/><path d="m753.1 279.5c0-2.7 1.9-4.9 4.5-4.9 2.8 0 4.3 2.2 4.3 4.9v.5h-7.4c.2 2 1.6 3.2 3.3 3.2 1.3 0 2.2-.5 2.9-1.3l.9.8c-.9 1-2.1 1.7-3.8 1.7-2.6-.1-4.7-2-4.7-4.9zm7.4-.5c-.1-1.7-1.1-3.2-3-3.2-1.6 0-2.8 1.4-3 3.2z"/><path d="m767.9 279.5c0-2.7 1.9-4.9 4.5-4.9 2.8 0 4.3 2.2 4.3 4.9v.5h-7.4c.2 2 1.6 3.2 3.3 3.2 1.3 0 2.2-.5 2.9-1.3l.9.8c-.9 1-2.1 1.7-3.8 1.7-2.6-.1-4.7-2-4.7-4.9zm7.4-.5c-.1-1.7-1.1-3.2-3-3.2-1.6 0-2.8 1.4-3 3.2z"/><path d="m782.1 278.5 2.8-3.6h1.5l-3.5 4.6 3.7 4.8h-1.6l-2.9-3.8-2.9 3.8h-1.5l3.6-4.7-3.5-4.6h1.6z"/><path d="m787.6 279.5c0-2.7 1.9-4.9 4.5-4.9 2.8 0 4.3 2.2 4.3 4.9v.5h-7.4c.2 2 1.6 3.2 3.3 3.2 1.3 0 2.2-.5 2.9-1.3l.9.8c-.9 1-2.1 1.7-3.8 1.7-2.6-.1-4.7-2-4.7-4.9zm7.4-.5c-.1-1.7-1.1-3.2-3-3.2-1.6 0-2.8 1.4-3 3.2z"/><path d="m798.2 274.8h1.4v2.4c.7-1.5 2-2.7 3.8-2.6v1.5h-.1c-2 0-3.7 1.5-3.7 4.3v3.7h-1.4z"/><path d="m804.3 279.5c0-2.7 2.1-4.9 4.8-4.9 1.8 0 2.9.7 3.7 1.7l-.9 1c-.7-.8-1.6-1.4-2.8-1.4-1.9 0-3.3 1.6-3.3 3.6 0 2 1.5 3.6 3.4 3.6 1.2 0 2.1-.6 2.8-1.4l.9.8c-.9 1-2.1 1.8-3.8 1.8-2.7 0-4.8-2.2-4.8-4.8z"/><path d="m814.6 271.3h1.6v1.5h-1.6zm.1 3.5h1.4v9.3h-1.4z"/><path d="m817.9 282.9.7-1c1 .8 2.1 1.2 3.2 1.2s1.9-.6 1.9-1.5c0-.9-1.1-1.3-2.3-1.6-1.5-.4-3.1-.9-3.1-2.6 0-1.6 1.3-2.7 3.2-2.7 1.1 0 2.4.4 3.3 1l-.6 1c-.9-.6-1.9-.9-2.8-.9-1.1 0-1.8.6-1.8 1.4 0 .9 1.2 1.2 2.4 1.6 1.4.4 3 1 3 2.7 0 1.8-1.5 2.8-3.3 2.8-1.3 0-2.8-.5-3.8-1.4z"/><path d="m826.4 279.5c0-2.7 1.9-4.9 4.5-4.9 2.8 0 4.3 2.2 4.3 4.9v.5h-7.4c.2 2 1.6 3.2 3.3 3.2 1.3 0 2.2-.5 2.9-1.3l.9.8c-.9 1-2.1 1.7-3.8 1.7-2.6-.1-4.7-2-4.7-4.9zm7.4-.5c-.1-1.7-1.1-3.2-3-3.2-1.6 0-2.8 1.4-3 3.2z"/><path d="m836.2 282.9.7-1c1 .8 2.1 1.2 3.2 1.2s1.9-.6 1.9-1.5c0-.9-1.1-1.3-2.3-1.6-1.5-.4-3.1-.9-3.1-2.6 0-1.6 1.3-2.7 3.2-2.7 1.1 0 2.4.4 3.3 1l-.6 1c-.9-.6-1.9-.9-2.8-.9-1.1 0-1.8.6-1.8 1.4 0 .9 1.2 1.2 2.4 1.6 1.4.4 3 1 3 2.7 0 1.8-1.5 2.8-3.3 2.8-1.3 0-2.7-.5-3.8-1.4z"/><path d="m844.6 285.7c.9-.3 1.3-.8 1.2-1.6h-.6v-1.9h1.7v1.6c0 1.5-.6 2.2-2 2.5z"/><path d="m853.1 274.8h1.5l2.4 7.5 2.5-7.5h1.2l2.5 7.5 2.4-7.5h1.4l-3.3 9.4h-1.2l-2.5-7.3-2.5 7.3h-1.2z"/><path d="m868.8 271.3h1.6v1.5h-1.6zm.1 3.5h1.4v9.3h-1.4z"/><path d="m873.3 281.7v-5.7h-1.3v-1.2h1.3v-2.8h1.4v2.8h3v1.2h-3v5.4c0 1.1.6 1.5 1.6 1.5.5 0 .9-.1 1.4-.3v1.2c-.5.3-1 .4-1.7.4-1.5.1-2.7-.7-2.7-2.5z"/><path d="m879.5 271h1.4v5.5c.6-1 1.6-1.8 3.2-1.8 2.3 0 3.6 1.5 3.6 3.7v5.8h-1.4v-5.4c0-1.7-.9-2.8-2.6-2.8-1.6 0-2.8 1.2-2.8 2.9v5.3h-1.4z"/><path d="m895.2 281.7v-5.7h-1.3v-1.2h1.3v-2.8h1.4v2.8h3v1.2h-3v5.4c0 1.1.6 1.5 1.6 1.5.5 0 .9-.1 1.4-.3v1.2c-.5.3-1 .4-1.7.4-1.6.1-2.7-.7-2.7-2.5z"/><path d="m901.4 271h1.4v5.5c.6-1 1.6-1.8 3.2-1.8 2.3 0 3.6 1.5 3.6 3.7v5.8h-1.4v-5.4c0-1.7-.9-2.8-2.6-2.8-1.6 0-2.8 1.2-2.8 2.9v5.3h-1.4z"/><path d="m911.2 279.5c0-2.7 1.9-4.9 4.5-4.9 2.8 0 4.3 2.2 4.3 4.9v.5h-7.4c.2 2 1.6 3.2 3.3 3.2 1.3 0 2.2-.5 2.9-1.3l.9.8c-.9 1-2.1 1.7-3.8 1.7-2.6-.1-4.7-2-4.7-4.9zm7.4-.5c-.1-1.7-1.1-3.2-3-3.2-1.6 0-2.8 1.4-3 3.2z"/><path d="m926.6 271h1.4v5.5c.6-1 1.6-1.8 3.2-1.8 2.3 0 3.6 1.5 3.6 3.7v5.8h-1.4v-5.4c0-1.7-.9-2.8-2.6-2.8-1.6 0-2.8 1.2-2.8 2.9v5.3h-1.4z"/><path d="m936.5 279.5c0-2.7 1.9-4.9 4.5-4.9 2.8 0 4.3 2.2 4.3 4.9v.5h-7.4c.2 2 1.6 3.2 3.3 3.2 1.3 0 2.2-.5 2.9-1.3l.9.8c-.9 1-2.1 1.7-3.8 1.7-2.6-.1-4.7-2-4.7-4.9zm7.4-.5c-.1-1.7-1.1-3.2-3-3.2-1.6 0-2.8 1.4-3 3.2z"/><path d="m947.2 271h1.4v13.1h-1.4z"/><path d="m951.2 274.8h1.4v1.9c.8-1.1 1.9-2.1 3.6-2.1 2.2 0 4.4 1.8 4.4 4.8 0 3-2.2 4.8-4.4 4.8-1.7 0-2.8-.9-3.6-2v4.7h-1.4zm8 4.7c0-2.2-1.5-3.6-3.3-3.6-1.7 0-3.4 1.5-3.4 3.6 0 2.2 1.6 3.6 3.4 3.6s3.3-1.4 3.3-3.6z"/><path d="m684.5 303.5c0-2.7 2.1-4.9 4.9-4.9s4.8 2.2 4.8 4.8c0 2.6-2.1 4.9-4.9 4.9-2.7 0-4.8-2.2-4.8-4.8zm8.3 0c0-2-1.5-3.7-3.5-3.7s-3.4 1.6-3.4 3.6c0 2 1.5 3.6 3.4 3.6 2.1.1 3.5-1.5 3.5-3.5z"/><path d="m696.6 300h-1.3v-1.2h1.3v-.8c0-1.1.3-1.9.8-2.4s1.2-.7 2-.7c.6 0 1.1.1 1.5.2v1.2c-.5-.1-.9-.2-1.4-.2-1.1 0-1.6.6-1.6 2v.8h3v1.2h-2.9v8.1h-1.4z"/><path d="m706.1 305.4c0-2 1.6-3 4-3 1.2 0 2 .2 2.9.4v-.3c0-1.7-1-2.5-2.8-2.5-1.1 0-2 .3-2.8.7l-.4-1.1c1-.5 2-.8 3.4-.8 1.3 0 2.3.3 3 1 .6.6 1 1.5 1 2.7v5.7h-1.3v-1.4c-.6.8-1.7 1.6-3.4 1.6-1.8-.1-3.6-1.1-3.6-3zm6.9-.7v-.9c-.7-.2-1.6-.4-2.7-.4-1.7 0-2.7.8-2.7 1.9 0 1.2 1.1 1.9 2.3 1.9 1.7 0 3.1-1 3.1-2.5z"/><path d="m721.9 305.7v-5.7h-1.3v-1.2h1.3v-2.8h1.4v2.8h3v1.2h-3v5.4c0 1.1.6 1.5 1.6 1.5.5 0 .9-.1 1.4-.3v1.2c-.5.3-1 .4-1.7.4-1.6.1-2.7-.7-2.7-2.5z"/><path d="m727.5 303.5c0-2.7 1.9-4.9 4.5-4.9 2.8 0 4.3 2.2 4.3 4.9v.5h-7.4c.2 2 1.6 3.2 3.3 3.2 1.3 0 2.2-.5 2.9-1.3l.9.8c-.9 1-2.1 1.7-3.8 1.7-2.6-.1-4.7-2-4.7-4.9zm7.4-.5c-.1-1.7-1.1-3.2-3-3.2-1.6 0-2.8 1.4-3 3.2z"/><path d="m737.3 306.9.7-1c1 .8 2.1 1.2 3.2 1.2s1.9-.6 1.9-1.5c0-.9-1.1-1.3-2.3-1.6-1.5-.4-3.1-.9-3.1-2.6 0-1.6 1.3-2.7 3.2-2.7 1.1 0 2.4.4 3.3 1l-.6 1c-.9-.6-1.9-.9-2.8-.9-1.1 0-1.8.6-1.8 1.4 0 .9 1.2 1.2 2.4 1.6 1.4.4 3 1 3 2.7 0 1.8-1.5 2.8-3.3 2.8-1.3 0-2.8-.5-3.8-1.4z"/><path d="m746.9 305.7v-5.7h-1.3v-1.2h1.3v-2.8h1.4v2.8h3v1.2h-3v5.4c0 1.1.6 1.5 1.6 1.5.5 0 .9-.1 1.4-.3v1.2c-.5.3-1 .4-1.7.4-1.6.1-2.7-.7-2.7-2.5z"/><path d="m753.1 295.3h1.6v1.5h-1.6zm.1 3.5h1.4v9.3h-1.4z"/><path d="m757.2 298.8h1.4v1.6c.6-1 1.6-1.8 3.2-1.8 2.3 0 3.6 1.5 3.6 3.7v5.8h-1.4v-5.4c0-1.7-.9-2.8-2.6-2.8-1.6 0-2.8 1.2-2.8 2.9v5.3h-1.4z"/><path d="m767.5 309.7.6-1.1c1.1.8 2.3 1.2 3.6 1.2 2.1 0 3.4-1.1 3.4-3.3v-1.1c-.8 1.1-1.9 2-3.7 2-2.2 0-4.4-1.7-4.4-4.4 0-2.7 2.2-4.4 4.4-4.4 1.7 0 2.9.9 3.6 1.9v-1.7h1.4v7.7c0 1.4-.4 2.5-1.2 3.3s-2.1 1.2-3.5 1.2c-1.5 0-3-.4-4.2-1.3zm7.6-6.7c0-1.9-1.7-3.2-3.4-3.2s-3.2 1.2-3.2 3.1c0 1.9 1.5 3.2 3.2 3.2 1.8.1 3.4-1.2 3.4-3.1z"/><path d="m784.2 300h-1.3v-1.2h1.3v-.8c0-1.1.3-1.9.8-2.4s1.2-.7 2-.7c.6 0 1.1.1 1.5.2v1.2c-.5-.1-.9-.2-1.4-.2-1.1 0-1.6.6-1.6 2v.8h3v1.2h-2.9v8.1h-1.4z"/><path d="m789.7 298.8h1.4v2.4c.7-1.5 2-2.7 3.8-2.6v1.5h-.1c-2 0-3.7 1.5-3.7 4.3v3.7h-1.4z"/><path d="m795.6 305.4c0-2 1.6-3 4-3 1.2 0 2 .2 2.9.4v-.3c0-1.7-1-2.5-2.8-2.5-1.1 0-2 .3-2.8.7l-.4-1.1c1-.5 2-.8 3.4-.8 1.3 0 2.3.3 3 1 .6.6 1 1.5 1 2.7v5.7h-1.3v-1.4c-.6.8-1.7 1.6-3.4 1.6-1.8-.1-3.6-1.1-3.6-3zm6.9-.7v-.9c-.7-.2-1.6-.4-2.7-.4-1.7 0-2.7.8-2.7 1.9 0 1.2 1.1 1.9 2.3 1.9 1.7 0 3.1-1 3.1-2.5z"/><path d="m806.1 298.8h1.4v1.6c.6-.9 1.4-1.8 3-1.8 1.5 0 2.5.8 3 1.9.7-1 1.7-1.9 3.3-1.9 2.1 0 3.5 1.4 3.5 3.7v5.8h-1.4v-5.4c0-1.8-.9-2.8-2.4-2.8-1.4 0-2.6 1-2.6 2.9v5.4h-1.4v-5.5c0-1.7-.9-2.8-2.4-2.8s-2.6 1.2-2.6 2.9v5.3h-1.4z"/><path d="m822 303.5c0-2.7 1.9-4.9 4.5-4.9 2.8 0 4.3 2.2 4.3 4.9v.5h-7.4c.2 2 1.6 3.2 3.3 3.2 1.3 0 2.2-.5 2.9-1.3l.9.8c-.9 1-2.1 1.7-3.8 1.7-2.6-.1-4.7-2-4.7-4.9zm7.4-.5c-.1-1.7-1.1-3.2-3-3.2-1.6 0-2.8 1.4-3 3.2z"/><path d="m831.9 298.8h1.5l2.4 7.5 2.5-7.5h1.2l2.5 7.5 2.4-7.5h1.4l-3.3 9.4h-1.2l-2.5-7.3-2.5 7.3h-1.2z"/><path d="m846.9 303.5c0-2.7 2.1-4.9 4.9-4.9s4.8 2.2 4.8 4.8c0 2.6-2.1 4.9-4.9 4.9-2.7 0-4.8-2.2-4.8-4.8zm8.3 0c0-2-1.5-3.7-3.5-3.7s-3.4 1.6-3.4 3.6c0 2 1.5 3.6 3.4 3.6 2.1.1 3.5-1.5 3.5-3.5z"/><path d="m858.5 298.8h1.4v2.4c.7-1.5 2-2.7 3.8-2.6v1.5h-.1c-2 0-3.7 1.5-3.7 4.3v3.7h-1.4z"/><path d="m865.2 295h1.4v9.1l5-5.2h1.7l-3.9 4 4 5.3h-1.7l-3.3-4.3-1.9 1.9v2.4h-1.4z"/><path d="m390.4 491.9.9-1c1.3 1.2 2.6 1.8 4.3 1.8s2.8-.9 2.8-2.1c0-1.2-.6-1.8-3.3-2.4-2.9-.6-4.2-1.6-4.2-3.6 0-2 1.7-3.4 4.1-3.4 1.8 0 3.2.5 4.4 1.5l-.8 1.1c-1.2-1-2.3-1.4-3.6-1.4-1.6 0-2.7.9-2.7 2 0 1.2.6 1.9 3.4 2.4 2.8.6 4.1 1.6 4.1 3.6 0 2.2-1.8 3.6-4.3 3.6-1.9 0-3.5-.7-5.1-2.1z"/><path d="m402.6 480.6h1.4v5.5c.6-1 1.6-1.8 3.2-1.8 2.3 0 3.6 1.5 3.6 3.7v5.8h-1.5v-5.4c0-1.7-.9-2.8-2.6-2.8-1.6 0-2.8 1.2-2.8 2.9v5.3h-1.4z"/><path d="m412.9 491.1c0-2 1.6-3 4-3 1.2 0 2 .2 2.9.4v-.3c0-1.7-1-2.5-2.8-2.5-1.1 0-2 .3-2.8.7l-.4-1.1c1-.5 2-.8 3.4-.8 1.3 0 2.3.3 3 1 .6.6 1 1.5 1 2.7v5.7h-1.3v-1.4c-.6.8-1.7 1.6-3.4 1.6-1.8-.1-3.6-1.1-3.6-3zm6.9-.7v-.9c-.7-.2-1.6-.4-2.7-.4-1.7 0-2.7.8-2.7 1.9 0 1.2 1.1 1.9 2.3 1.9 1.7 0 3.1-1.1 3.1-2.5z"/><path d="m424.1 484.5h1.4v2.4c.7-1.5 2-2.7 3.8-2.6v1.5h-.1c-2 0-3.7 1.5-3.7 4.3v3.7h-1.4z"/><path d="m430.8 489.2c0-2.7 1.9-4.9 4.5-4.9 2.8 0 4.3 2.2 4.3 4.9v.5h-7.4c.2 2 1.6 3.2 3.3 3.2 1.3 0 2.2-.5 2.9-1.3l.9.8c-.9 1-2.1 1.7-3.8 1.7-2.6-.1-4.7-2.1-4.7-4.9zm7.4-.6c-.1-1.7-1.1-3.2-3-3.2-1.6 0-2.8 1.4-3 3.2z"/><path d="m454.4 484.5h1.5l-3.9 9.6c-.8 1.9-1.7 2.6-3.1 2.6-.8 0-1.4-.2-2-.5l.5-1.1c.5.2.9.3 1.5.3.8 0 1.3-.4 1.9-1.7l-4.2-9.3h1.5l3.4 7.8z"/><path d="m457.5 489.2c0-2.7 2.1-4.9 4.9-4.9s4.8 2.2 4.8 4.8c0 2.6-2.1 4.9-4.9 4.9s-4.8-2.2-4.8-4.8zm8.3 0c0-2-1.5-3.7-3.5-3.7s-3.4 1.6-3.4 3.6c0 2 1.5 3.6 3.4 3.6 2.1.1 3.5-1.6 3.5-3.5z"/><path d="m469.5 490.3v-5.8h1.4v5.4c0 1.7.9 2.8 2.6 2.8 1.6 0 2.8-1.2 2.8-2.9v-5.3h1.4v9.3h-1.4v-1.6c-.6 1-1.6 1.8-3.2 1.8-2.2 0-3.6-1.5-3.6-3.7z"/><path d="m480.8 484.5h1.4v2.4c.7-1.5 2-2.7 3.8-2.6v1.5h-.1c-2 0-3.7 1.5-3.7 4.3v3.7h-1.4z"/><path d="m492.9 489.2c0-2.7 2.1-4.9 4.8-4.9 1.8 0 2.9.7 3.7 1.7l-.9 1c-.7-.8-1.6-1.4-2.8-1.4-1.9 0-3.3 1.6-3.3 3.6 0 2 1.5 3.6 3.4 3.6 1.2 0 2.1-.6 2.8-1.4l.9.8c-.9 1-2.1 1.8-3.8 1.8-2.8 0-4.8-2.2-4.8-4.8z"/><path d="m503.2 489.2c0-2.7 2.1-4.9 4.9-4.9s4.8 2.2 4.8 4.8c0 2.6-2.1 4.9-4.9 4.9s-4.8-2.2-4.8-4.8zm8.2 0c0-2-1.5-3.7-3.5-3.7s-3.4 1.6-3.4 3.6c0 2 1.5 3.6 3.4 3.6 2.1.1 3.5-1.6 3.5-3.5z"/><path d="m515.2 490.3v-5.8h1.4v5.4c0 1.7.9 2.8 2.6 2.8 1.6 0 2.8-1.2 2.8-2.9v-5.3h1.4v9.3h-1.4v-1.6c-.6 1-1.6 1.8-3.2 1.8-2.3 0-3.6-1.5-3.6-3.7z"/><path d="m526.5 484.5h1.4v2.4c.7-1.5 2-2.7 3.8-2.6v1.5h-.1c-2 0-3.7 1.5-3.7 4.3v3.7h-1.4z"/><path d="m533 492.6.7-1c1 .8 2.1 1.2 3.2 1.2s1.9-.6 1.9-1.5c0-.9-1.1-1.3-2.3-1.6-1.5-.4-3.1-.9-3.1-2.6 0-1.6 1.3-2.7 3.2-2.7 1.1 0 2.4.4 3.3 1l-.6 1c-.9-.6-1.9-.9-2.8-.9-1.1 0-1.8.6-1.8 1.4 0 .9 1.2 1.2 2.4 1.6 1.4.4 3 1 3 2.7 0 1.8-1.5 2.8-3.3 2.8-1.3 0-2.8-.6-3.8-1.4z"/><path d="m542.1 489.2c0-2.7 1.9-4.9 4.5-4.9 2.8 0 4.3 2.2 4.3 4.9v.5h-7.4c.2 2 1.6 3.2 3.3 3.2 1.3 0 2.2-.5 2.9-1.3l.9.8c-.9 1-2.1 1.7-3.8 1.7-2.6-.1-4.7-2.1-4.7-4.9zm7.4-.6c-.1-1.7-1.1-3.2-3-3.2-1.6 0-2.8 1.4-3 3.2z"/><path d="m558.8 484.5h1.4v1.9c.8-1.1 1.9-2.1 3.6-2.1 2.2 0 4.4 1.8 4.4 4.8 0 3-2.2 4.8-4.4 4.8-1.7 0-2.8-.9-3.6-2v4.7h-1.4zm7.9 4.7c0-2.2-1.5-3.6-3.3-3.6-1.7 0-3.4 1.5-3.4 3.6 0 2.2 1.6 3.6 3.4 3.6 1.9-.1 3.3-1.4 3.3-3.6z"/><path d="m570.6 490.3v-5.8h1.4v5.4c0 1.7.9 2.8 2.6 2.8 1.6 0 2.8-1.2 2.8-2.9v-5.3h1.4v9.3h-1.5v-1.6c-.6 1-1.6 1.8-3.2 1.8-2.2 0-3.5-1.5-3.5-3.7z"/><path d="m583.2 492v1.8h-1.4v-13.1h1.4v5.7c.8-1.1 1.9-2.1 3.6-2.1 2.2 0 4.4 1.8 4.4 4.8 0 3-2.2 4.8-4.4 4.8-1.8.1-2.9-.9-3.6-1.9zm6.6-2.8c0-2.2-1.5-3.6-3.3-3.6-1.7 0-3.4 1.5-3.4 3.6 0 2.2 1.6 3.6 3.4 3.6 1.8-.1 3.3-1.4 3.3-3.6z"/><path d="m593.9 480.6h1.4v13.1h-1.4z"/><path d="m598.5 480.9h1.6v1.5h-1.6zm.1 3.6h1.4v9.3h-1.4z"/><path d="m602.6 489.2c0-2.7 2.1-4.9 4.8-4.9 1.8 0 2.9.7 3.7 1.7l-.9 1c-.7-.8-1.6-1.4-2.8-1.4-1.9 0-3.3 1.6-3.3 3.6 0 2 1.5 3.6 3.4 3.6 1.2 0 2.1-.6 2.8-1.4l.9.8c-.9 1-2.1 1.8-3.8 1.8-2.7 0-4.8-2.2-4.8-4.8z"/><path d="m613.6 480.6h1.4v13.1h-1.4z"/><path d="m625.2 484.5h1.5l-3.9 9.6c-.8 1.9-1.7 2.6-3.1 2.6-.8 0-1.4-.2-2-.5l.5-1.1c.5.2.9.3 1.5.3.8 0 1.3-.4 1.9-1.7l-4.2-9.3h1.5l3.4 7.8z"/><path d="m390.5 513.2c0-2.7 2.1-4.9 4.9-4.9s4.8 2.2 4.8 4.8c0 2.6-2.1 4.9-4.9 4.9s-4.8-2.2-4.8-4.8zm8.3 0c0-2-1.5-3.7-3.5-3.7s-3.4 1.6-3.4 3.6c0 2 1.5 3.6 3.4 3.6 2 .1 3.5-1.6 3.5-3.5z"/><path d="m402.7 508.5h1.4v2.4c.7-1.5 2-2.7 3.8-2.6v1.5h-.1c-2 0-3.7 1.5-3.7 4.3v3.7h-1.4z"/><path d="m415.4 508.5h1.4v1.9c.8-1.1 1.9-2.1 3.6-2.1 2.2 0 4.4 1.8 4.4 4.8 0 3-2.2 4.8-4.4 4.8-1.7 0-2.8-.9-3.6-2v4.7h-1.4zm7.9 4.7c0-2.2-1.5-3.6-3.3-3.6-1.7 0-3.4 1.5-3.4 3.6 0 2.2 1.6 3.6 3.4 3.6 1.9-.1 3.3-1.4 3.3-3.6z"/><path d="m427.3 508.5h1.4v2.4c.7-1.5 2-2.7 3.8-2.6v1.5h-.1c-2 0-3.7 1.5-3.7 4.3v3.7h-1.4z"/><path d="m434.6 504.9h1.6v1.5h-1.6zm.1 3.6h1.4v9.3h-1.4z"/><path d="m438.4 508.5h1.5l3.1 7.7 3.2-7.7h1.5l-4.1 9.4h-1.2z"/><path d="m449.2 515.1c0-2 1.6-3 4-3 1.2 0 2 .2 2.9.4v-.3c0-1.7-1-2.5-2.8-2.5-1.1 0-2 .3-2.8.7l-.4-1.1c1-.5 2-.8 3.4-.8 1.3 0 2.3.3 3 1 .6.6 1 1.5 1 2.7v5.7h-1.3v-1.4c-.6.8-1.7 1.6-3.4 1.6-1.9-.1-3.6-1.1-3.6-3zm6.9-.7v-.9c-.7-.2-1.6-.4-2.7-.4-1.7 0-2.7.8-2.7 1.9 0 1.2 1.1 1.9 2.3 1.9 1.7 0 3.1-1.1 3.1-2.5z"/><path d="m460.8 515.3v-5.6h-1.3v-1.2h1.3v-2.8h1.4v2.8h3v1.2h-3v5.4c0 1.1.6 1.5 1.6 1.5.5 0 .9-.1 1.4-.3v1.2c-.5.3-1 .4-1.7.4-1.6 0-2.7-.7-2.7-2.6z"/><path d="m467 513.2c0-2.7 1.9-4.9 4.5-4.9 2.8 0 4.3 2.2 4.3 4.9v.5h-7.4c.2 2 1.6 3.2 3.3 3.2 1.3 0 2.2-.5 2.9-1.3l.9.8c-.9 1-2.1 1.7-3.8 1.7-2.6-.1-4.7-2.1-4.7-4.9zm7.4-.6c-.1-1.7-1.1-3.2-3-3.2-1.6 0-2.8 1.4-3 3.2z"/><path d="m478.4 504.6h1.4v13.1h-1.4z"/><path d="m490 508.5h1.5l-3.9 9.6c-.8 1.9-1.7 2.6-3.1 2.6-.8 0-1.3-.2-2-.5l.5-1.1c.4.2.9.3 1.5.3.8 0 1.4-.4 1.9-1.7l-4.2-9.3h1.5l3.4 7.8z"/><path d="m498.2 508.5h1.5l2.4 7.5 2.5-7.5h1.2l2.5 7.5 2.4-7.5h1.4l-3.3 9.4h-1.2l-2.5-7.3-2.5 7.3h-1.2z"/><path d="m514.6 504.9h1.6v1.5h-1.6zm0 3.6h1.4v9.3h-1.4z"/><path d="m519.7 515.3v-5.6h-1.3v-1.2h1.3v-2.8h1.4v2.8h3v1.2h-3v5.4c0 1.1.6 1.5 1.6 1.5.5 0 .9-.1 1.4-.3v1.2c-.5.3-1 .4-1.7.4-1.5 0-2.7-.7-2.7-2.6z"/><path d="m526.5 504.6h1.4v5.5c.6-1 1.6-1.8 3.2-1.8 2.3 0 3.6 1.5 3.6 3.7v5.8h-1.4v-5.4c0-1.7-.9-2.8-2.6-2.8-1.6 0-2.8 1.2-2.8 2.9v5.3h-1.4z"/><path d="m550 508.5h1.5l-3.9 9.6c-.8 1.9-1.7 2.6-3.1 2.6-.8 0-1.3-.2-2-.5l.5-1.1c.5.2.9.3 1.5.3.8 0 1.4-.4 1.9-1.7l-4.2-9.3h1.5l3.4 7.8z"/><path d="m553.1 513.2c0-2.7 2.1-4.9 4.9-4.9s4.8 2.2 4.8 4.8c0 2.6-2.1 4.9-4.9 4.9s-4.8-2.2-4.8-4.8zm8.3 0c0-2-1.5-3.7-3.5-3.7s-3.4 1.6-3.4 3.6c0 2 1.5 3.6 3.4 3.6 2.1.1 3.5-1.6 3.5-3.5z"/><path d="m565.1 514.3v-5.8h1.4v5.4c0 1.7.9 2.8 2.6 2.8 1.6 0 2.8-1.2 2.8-2.9v-5.3h1.4v9.3h-1.4v-1.6c-.6 1-1.6 1.8-3.2 1.8-2.2 0-3.6-1.5-3.6-3.7z"/><path d="m576.4 508.5h1.4v2.4c.7-1.5 2-2.7 3.8-2.6v1.5h-.1c-2 0-3.7 1.5-3.7 4.3v3.7h-1.4z"/><path d="m588.3 516.6.7-1c1 .8 2.1 1.2 3.2 1.2s1.9-.6 1.9-1.5c0-.9-1.1-1.3-2.3-1.6-1.5-.4-3.1-.9-3.1-2.6 0-1.6 1.3-2.7 3.2-2.7 1.1 0 2.4.4 3.3 1l-.6 1c-.9-.6-1.9-.9-2.8-.9-1.1 0-1.8.6-1.8 1.4 0 .9 1.2 1.2 2.4 1.6 1.4.4 3 1 3 2.7 0 1.8-1.5 2.8-3.3 2.8-1.3 0-2.8-.6-3.8-1.4z"/><path d="m598.5 515.3v-5.6h-1.3v-1.2h1.3v-2.8h1.4v2.8h3v1.2h-3v5.4c0 1.1.6 1.5 1.6 1.5.5 0 .9-.1 1.4-.3v1.2c-.5.3-1 .4-1.7.4-1.6 0-2.7-.7-2.7-2.6z"/><path d="m605.1 514.3v-5.8h1.4v5.4c0 1.7.9 2.8 2.6 2.8 1.6 0 2.8-1.2 2.8-2.9v-5.3h1.4v9.3h-1.4v-1.6c-.6 1-1.6 1.8-3.2 1.8-2.2 0-3.6-1.5-3.6-3.7z"/><path d="m615.8 513.2c0-3.1 2.2-4.9 4.4-4.9 1.7 0 2.8.9 3.6 2v-5.6h1.4v13.1h-1.4v-1.9c-.8 1.1-1.9 2.1-3.6 2.1-2.1 0-4.4-1.8-4.4-4.8zm8.1-.1c0-2.2-1.6-3.6-3.4-3.6s-3.3 1.3-3.3 3.6c0 2.2 1.5 3.6 3.3 3.6s3.4-1.4 3.4-3.6z"/><path d="m627.8 513.2c0-2.7 1.9-4.9 4.5-4.9 2.8 0 4.3 2.2 4.3 4.9v.5h-7.4c.2 2 1.6 3.2 3.3 3.2 1.3 0 2.2-.5 2.9-1.3l.9.8c-.9 1-2.1 1.7-3.8 1.7-2.7-.1-4.7-2.1-4.7-4.9zm7.4-.6c-.1-1.7-1.1-3.2-3-3.2-1.6 0-2.8 1.4-3 3.2z"/><path d="m639 508.5h1.4v1.6c.6-1 1.6-1.8 3.2-1.8 2.3 0 3.6 1.5 3.6 3.7v5.8h-1.4v-5.4c0-1.7-.9-2.8-2.6-2.8-1.6 0-2.8 1.2-2.8 2.9v5.3h-1.4z"/><path d="m650.6 515.3v-5.6h-1.3v-1.2h1.3v-2.8h1.4v2.8h3v1.2h-3v5.4c0 1.1.6 1.5 1.6 1.5.5 0 .9-.1 1.4-.3v1.2c-.5.3-1 .4-1.7.4-1.6 0-2.7-.7-2.7-2.6z"/><path d="m656.6 516.6.7-1c1 .8 2.1 1.2 3.2 1.2s1.9-.6 1.9-1.5c0-.9-1.1-1.3-2.3-1.6-1.5-.4-3.1-.9-3.1-2.6 0-1.6 1.3-2.7 3.2-2.7 1.1 0 2.4.4 3.3 1l-.6 1c-.9-.6-1.9-.9-2.8-.9-1.1 0-1.8.6-1.8 1.4 0 .9 1.2 1.2 2.4 1.6 1.4.4 3 1 3 2.7 0 1.8-1.5 2.8-3.3 2.8-1.3 0-2.8-.6-3.8-1.4z"/><path d="m390.5 537.2c0-2.7 2.1-4.9 4.9-4.9s4.8 2.2 4.8 4.8c0 2.6-2.1 4.9-4.9 4.9s-4.8-2.2-4.8-4.8zm8.3 0c0-2-1.5-3.7-3.5-3.7s-3.4 1.6-3.4 3.6c0 2 1.5 3.6 3.4 3.6 2 .1 3.5-1.6 3.5-3.5z"/><path d="m402.7 532.5h1.4v2.4c.7-1.5 2-2.7 3.8-2.6v1.5h-.1c-2 0-3.7 1.5-3.7 4.3v3.7h-1.4z"/><path d="m414.8 537.2c0-2.7 2.1-4.9 4.8-4.9 1.8 0 2.9.7 3.7 1.7l-.9 1c-.7-.8-1.6-1.4-2.8-1.4-1.9 0-3.3 1.6-3.3 3.6 0 2 1.5 3.6 3.4 3.6 1.2 0 2.1-.6 2.8-1.4l.9.8c-.9 1-2.1 1.8-3.8 1.8-2.8 0-4.8-2.2-4.8-4.8z"/><path d="m425.1 537.2c0-2.7 2.1-4.9 4.9-4.9s4.8 2.2 4.8 4.8c0 2.6-2.1 4.9-4.9 4.9s-4.8-2.2-4.8-4.8zm8.2 0c0-2-1.5-3.7-3.5-3.7s-3.4 1.6-3.4 3.6c0 2 1.5 3.6 3.4 3.6 2.1.1 3.5-1.6 3.5-3.5z"/><path d="m436.9 535.6h5v1.5h-5z"/><path d="m443.8 532.5h1.5l2.4 7.5 2.5-7.5h1.2l2.5 7.5 2.4-7.5h1.4l-3.3 9.4h-1.1l-2.5-7.3-2.5 7.3h-1.2z"/><path d="m459.5 537.2c0-2.7 2.1-4.9 4.9-4.9s4.8 2.2 4.8 4.8c0 2.6-2.1 4.9-4.9 4.9-2.7 0-4.8-2.2-4.8-4.8zm8.3 0c0-2-1.5-3.7-3.5-3.7s-3.4 1.6-3.4 3.6c0 2 1.5 3.6 3.4 3.6 2.1.1 3.5-1.6 3.5-3.5z"/><path d="m471.7 532.5h1.4v2.4c.7-1.5 2-2.7 3.8-2.6v1.5h-.1c-2 0-3.7 1.5-3.7 4.3v3.7h-1.4z"/><path d="m479 528.6h1.4v9.1l5-5.2h1.7l-3.9 4 4 5.3h-1.7l-3.3-4.3-1.9 1.9v2.4h-1.4z"/><path d="m488.7 537.2c0-2.7 1.9-4.9 4.5-4.9 2.8 0 4.3 2.2 4.3 4.9v.5h-7.4c.2 2 1.6 3.2 3.3 3.2 1.3 0 2.2-.5 2.9-1.3l.9.8c-.9 1-2.1 1.7-3.8 1.7-2.6-.1-4.7-2.1-4.7-4.9zm7.4-.6c-.1-1.7-1.1-3.2-3-3.2-1.6 0-2.8 1.4-3 3.2z"/><path d="m499.9 532.5h1.4v2.4c.7-1.5 2-2.7 3.8-2.6v1.5h-.1c-2 0-3.7 1.5-3.7 4.3v3.7h-1.4z"/><path d="m506.4 540.6.7-1c1 .8 2.1 1.2 3.2 1.2s1.9-.6 1.9-1.5c0-.9-1.1-1.3-2.3-1.6-1.5-.4-3.1-.9-3.1-2.6 0-1.6 1.3-2.7 3.2-2.7 1.1 0 2.4.4 3.3 1l-.6 1c-.9-.6-1.9-.9-2.8-.9-1.1 0-1.8.6-1.8 1.4 0 .9 1.2 1.2 2.4 1.6 1.4.4 3 1 3 2.7 0 1.8-1.5 2.8-3.3 2.8-1.2 0-2.7-.6-3.8-1.4z"/><path d="m1109.2-154.5h-192.9c-.3 0-.5-.2-.5-.5s.2-.5.5-.5h192.9c.3 0 .5.2.5.5s-.2.5-.5.5z"/><path d="m1105.7-147c-.1 0-.3-.1-.4-.2-.2-.2-.2-.5 0-.7l7.6-7.2-8.4-7c-.2-.2-.2-.5-.1-.7.2-.2.5-.2.7-.1l8.8 7.4c.1.1.2.2.2.4s-.1.3-.2.4l-8 7.6s-.1.1-.2.1z"/><path d="m688.3-147h-192.9c-.3 0-.5-.2-.5-.5s.2-.5.5-.5h192.9c.3 0 .5.2.5.5s-.3.5-.5.5z"/><path d="m684.7-139.6c-.1 0-.3-.1-.4-.2-.2-.2-.2-.5 0-.7l7.6-7.2-8.4-7c-.2-.2-.2-.5-.1-.7.2-.2.5-.2.7-.1l8.8 7.4c.1.1.2.2.2.4s-.1.3-.2.4l-8 7.6c.1.1-.1.1-.2.1z"/><path d="m1099.6 163.4h-192.9c-.3 0-.5-.2-.5-.5s.2-.5.5-.5h192.9c.3 0 .5.2.5.5s-.2.5-.5.5z"/><path d="m910.2 171c-.1 0-.2 0-.3-.1l-8-7.6c-.1-.1-.2-.2-.2-.4s.1-.3.2-.4l8.8-7.4c.2-.2.5-.1.7.1s.1.5-.1.7l-8.4 7 7.6 7.2c.2.2.2.5 0 .7 0 .2-.1.2-.3.2z"/><path d="m1214 75.3c-.3 0-.5-.2-.5-.5v-77.2c0-.3.2-.5.5-.5s.5.2.5.5v77.2c0 .2-.3.5-.5.5z"/><path d="m1214.3 79.7c-.1 0-.3-.1-.4-.2l-7.6-8c-.2-.2-.2-.5 0-.7s.5-.2.7 0l7.2 7.6 7-8.4c.2-.2.5-.2.7-.1.2.2.2.5.1.7l-7.4 8.8c0 .2-.1.3-.3.3z"/><path d="m340.6-163.8c-.6 0-1-.4-1-1s.4-1 1-1c14.2 0 25.8-11.6 25.8-25.8 0-.6.4-1 1-1s1 .4 1 1c0 15.4-12.5 27.8-27.8 27.8z"/><path d="m394.3-163.8c-15.3 0-27.8-12.5-27.8-27.8 0-.6.4-1 1-1s1 .4 1 1c0 14.2 11.6 25.8 25.8 25.8.6 0 1 .4 1 1s-.5 1-1 1z"/><path d="m367.4-136.9c-.6 0-1-.4-1-1 0-14.2-11.6-25.8-25.8-25.8-.6 0-1-.4-1-1s.4-1 1-1c15.3 0 27.8 12.5 27.8 27.8 0 .5-.4 1-1 1z"/><path d="m367.4-136.9c-.6 0-1-.4-1-1 0-15.3 12.5-27.8 27.8-27.8.6 0 1 .4 1 1s-.4 1-1 1c-14.2 0-25.8 11.6-25.8 25.8 0 .5-.4 1-1 1z"/><path d="m332.2-120.2c-.6 0-1-.4-1-1s.4-1 1-1c11.5 0 20.9-9.4 20.9-20.9 0-.6.4-1 1-1s1 .4 1 1c-.1 12.7-10.3 22.9-22.9 22.9z"/><path d="m375.9-120.2c-12.6 0-22.9-10.3-22.9-22.9 0-.6.4-1 1-1s1 .4 1 1c0 11.5 9.4 20.9 20.9 20.9.6 0 1 .4 1 1s-.5 1-1 1z"/><path d="m354-98.3c-.6 0-1-.4-1-1 0-11.5-9.4-20.9-20.9-20.9-.6 0-1-.4-1-1s.4-1 1-1c12.6 0 22.9 10.3 22.9 22.9 0 .5-.4 1-1 1z"/><path d="m354-98.3c-.6 0-1-.4-1-1 0-12.6 10.3-22.9 22.9-22.9.6 0 1 .4 1 1s-.4 1-1 1c-11.5 0-20.9 9.4-20.9 20.9 0 .5-.4 1-1 1z"/><path d="m401.4-178.1c-.6 0-1-.4-1-1s.4-1 1-1c7 0 12.7-5.7 12.7-12.7 0-.6.4-1 1-1s1 .4 1 1c0 8.1-6.6 14.7-14.7 14.7z"/><path d="m428.7-178.1c-8.1 0-14.7-6.6-14.7-14.7 0-.6.4-1 1-1s1 .4 1 1c0 7 5.7 12.7 12.7 12.7.6 0 1 .4 1 1s-.4 1-1 1z"/><path d="m415.1-164.4c-.6 0-1-.4-1-1 0-7-5.7-12.7-12.7-12.7-.6 0-1-.4-1-1s.4-1 1-1c8.1 0 14.7 6.6 14.7 14.7 0 .5-.5 1-1 1z"/><path d="m415.1-164.4c-.6 0-1-.4-1-1 0-8.1 6.6-14.7 14.7-14.7.6 0 1 .4 1 1s-.4 1-1 1c-7 0-12.7 5.7-12.7 12.7 0 .5-.5 1-1 1z"/><path d="m435.3-93.9c-1 0-1.9-.4-2.6-1.1l-44.9-44.9c-1.4-1.4-1.4-3.8 0-5.2l2.3-2.3c1.4-1.4 3.8-1.4 5.2 0l44.9 44.9c.7.7 1.1 1.6 1.1 2.6s-.4 1.9-1.1 2.6l-2.3 2.3c-.6.7-1.6 1.1-2.6 1.1zm-42.6-52.6c-.5 0-.9.2-1.2.5l-2.3 2.3c-.7.7-.7 1.7 0 2.4l44.9 44.9c.6.6 1.8.6 2.4 0l2.3-2.3c.3-.3.5-.7.5-1.2s-.2-.9-.5-1.2l-44.9-44.9c-.3-.3-.7-.5-1.2-.5z"/><path d="m399.6-128.5c-.3 0-.5-.1-.7-.3-.4-.4-.4-1 0-1.4l6.1-6.1c.4-.4 1-.4 1.4 0s.4 1 0 1.4l-6.1 6.1c-.2.2-.5.3-.7.3z"/><path d="m526.4 336c-.2 0-.3-.1-.4-.2l-7.8-9.3c-.2-.2-.1-.5.1-.7s.5-.1.7.1l7.4 8.9 7.6-8c.2-.2.5-.2.7 0s.2.5 0 .7l-8 8.4c-.1 0-.2.1-.3.1z"/><path d="m526.5 331.3c-.3 0-.5-.2-.5-.5 0-75.9 61.8-137.7 137.7-137.7.3 0 .5.2.5.5s-.2.5-.5.5c-75.4 0-136.7 61.3-136.7 136.7 0 .3-.2.5-.5.5z"/><path d="m849.5-105.2h-90.7c-2.1 0-3.7-1.7-3.7-3.7v-75.2c0-2.1 1.7-3.7 3.7-3.7h90.7c2.1 0 3.7 1.7 3.7 3.7v75.2c.1 2-1.6 3.7-3.7 3.7zm-90.7-80.7c-1 0-1.7.8-1.7 1.7v75.2c0 1 .8 1.7 1.7 1.7h90.7c1 0 1.7-.8 1.7-1.7v-75.2c0-1-.8-1.7-1.7-1.7z"/><path d="m852.3-178h-96.2c-.6 0-1-.4-1-1s.4-1 1-1h96.2c.6 0 1 .4 1 1s-.5 1-1 1z"/><path d="m1229.9-175.9h-59.1c-1.7 0-3-1.3-3-3v-17c0-1.7 1.3-3 3-3h59.1c1.7 0 3 1.3 3 3v17c0 1.6-1.4 3-3 3zm-59.1-21c-.6 0-1 .4-1 1v17c0 .6.4 1 1 1h59.1c.6 0 1-.4 1-1v-17c0-.6-.4-1-1-1z"/><path d="m1254.9-141.3h-59.1c-1.7 0-3-1.3-3-3v-17c0-1.7 1.3-3 3-3h59.1c1.7 0 3 1.3 3 3v17c0 1.6-1.4 3-3 3zm-59.2-21c-.6 0-1 .4-1 1v17c0 .6.4 1 1 1h59.1c.6 0 1-.4 1-1v-17c0-.6-.4-1-1-1z"/><path d="m1223.6-107.8h-59.1c-1.7 0-3-1.3-3-3v-17c0-1.7 1.3-3 3-3h59.1c1.7 0 3 1.3 3 3v17c0 1.6-1.3 3-3 3zm-59.1-21c-.6 0-1 .4-1 1v17c0 .6.4 1 1 1h59.1c.6 0 1-.4 1-1v-17c0-.6-.4-1-1-1z"/><path d="m1265.6 190.5h-98c-.6 0-1-.4-1-1v-66c0-.6.4-1 1-1h98c.6 0 1 .4 1 1v66c0 .5-.5 1-1 1zm-97-2h96v-64h-96z"/><path d="m1275.7 199.9h-122.4c-.4 0-.8-.3-1-.7-.1-.4 0-.9.4-1.1l13.5-9.4c.5-.3 1.1-.2 1.4.2.3.5.2 1.1-.2 1.4l-10.9 7.6h116.6l-8.2-7.7c-.4-.4-.4-1 0-1.4s1-.4 1.4 0l10.1 9.4c.3.3.4.7.2 1.1-.2.3-.5.6-.9.6z"/><path d="m1271.3 203.2c-.1 0-.2 0-.2 0h-112.3c-3.9 0-6.7-3.4-6.8-3.5-.4-.4-.3-1.1.1-1.4.4-.4 1.1-.3 1.4.1.1.1 2.4 2.8 5.3 2.8h112.3.1c.1 0 2.2.1 3.6-2.5.2-.5.8-.7 1.3-.5s.7.8.5 1.3c-1.7 3.4-4.5 3.7-5.3 3.7z"/><path d="m1200.3 136.5h40.7v2h-40.7z"/><path d="m1200.3 144.1h34v2h-34z"/><path d="m1208.6 151.8h12.1v2h-12.1z"/><path d="m1208.6 159.4h34v2h-34z"/><path d="m1200.3 167h22.6v2h-22.6z"/><path d="m1200.3 174.5h12.1v2h-12.1z"/><path d="m778.6-164h40.7v2h-40.7z"/><path d="m778.6-156.5h34v2h-34z"/><path d="m786.9-148.7h12.1v2h-12.1z"/><path d="m786.9-141.1h34v2h-34z"/><path d="m778.6-133.5h22.6v2h-22.6z"/><path d="m778.6-126h12.1v2h-12.1z"/><path d="m1194.3 176.5h-13.5c-.6 0-1-.4-1-1v-38c0-.6.4-1 1-1h13.5c.6 0 1 .4 1 1v38c0 .5-.5 1-1 1zm-12.5-2h11.5v-36h-11.5z"/><path d="m768.5 135c-.3 0-.5-.1-.7-.3l-7-7.6c-.4-.4-.3-1 .1-1.4s1-.3 1.4.1l6.2 6.8 12.2-15.8c.3-.4 1-.5 1.4-.2s.5 1 .2 1.4l-13 16.6c-.2.2-.4.3-.8.4z"/><path d="m768.5 173.6c-.3 0-.5-.1-.7-.3l-7-7.6c-.4-.4-.3-1 .1-1.4s1-.3 1.4.1l6.2 6.8 12.2-15.8c.3-.4 1-.5 1.4-.2s.5 1 .2 1.4l-13 16.6c-.2.3-.4.4-.8.4z"/><path d="m768.5 209.8c-.3 0-.5-.1-.7-.3l-7-7.6c-.4-.4-.3-1 .1-1.4s1-.3 1.4.1l6.2 6.8 12.2-15.8c.3-.4 1-.5 1.4-.2s.5 1 .2 1.4l-13 16.6c-.2.2-.4.4-.8.4z"/><path d="m859.3 139.7h-64.1c-1.7 0-3-1.3-3-3v-18.7c0-1.7 1.3-3 3-3h64.1c1.7 0 3 1.3 3 3v18.7c0 1.6-1.4 3-3 3zm-64.2-22.7c-.6 0-1 .4-1 1v18.7c0 .6.4 1 1 1h64.2c.6 0 1-.4 1-1v-18.7c0-.6-.4-1-1-1z"/><path d="m859.3 177h-64.1c-1.7 0-3-1.3-3-3v-18.7c0-1.7 1.3-3 3-3h64.1c1.7 0 3 1.3 3 3v18.7c0 1.7-1.4 3-3 3zm-64.2-22.6c-.6 0-1 .4-1 1v18.7c0 .6.4 1 1 1h64.2c.6 0 1-.4 1-1v-18.7c0-.6-.4-1-1-1z"/><path d="m859.3 213.2h-64.1c-1.7 0-3-1.3-3-3v-18.7c0-1.7 1.3-3 3-3h64.1c1.7 0 3 1.3 3 3v18.7c0 1.7-1.4 3-3 3zm-64.2-22.7c-.6 0-1 .4-1 1v18.7c0 .6.4 1 1 1h64.2c.6 0 1-.4 1-1v-18.7c0-.6-.4-1-1-1z"/><path d="m492.4 402.5c-7.8 0-14.1-6.3-14.1-14.1s6.3-14.1 14.1-14.1 14.1 6.3 14.1 14.1-6.4 14.1-14.1 14.1zm0-26.2c-6.7 0-12.1 5.4-12.1 12.1s5.4 12.1 12.1 12.1 12.1-5.4 12.1-12.1-5.5-12.1-12.1-12.1z"/><path d="m506.4 431.4h-31.7c-.6 0-1-.4-1-1v-10.1c0-6 2.9-11.7 7.9-15.2.3-.2.7-.2 1.1-.1 3 1.7 6.3 2.5 9.7 2.5s6.7-.9 9.7-2.5c.3-.2.8-.2 1.1.1 4.9 3.5 7.9 9.2 7.9 15.2v1.7c0 .6-.4 1-1 1s-1-.4-1-1v-1.7c0-5.1-2.4-10-6.5-13.2-6.2 3.3-14 3.3-20.2 0-4.1 3.2-6.5 8-6.5 13.2v9.1h30.7c.6 0 1 .4 1 1s-.6 1-1.2 1z"/><path d="m563 402.5c-7.8 0-14.1-6.3-14.1-14.1s6.3-14.1 14.1-14.1 14.1 6.3 14.1 14.1-6.3 14.1-14.1 14.1zm0-26.2c-6.7 0-12.1 5.4-12.1 12.1s5.4 12.1 12.1 12.1 12.1-5.4 12.1-12.1-5.4-12.1-12.1-12.1z"/><path d="m580.6 431.4h-30.7c-.6 0-1-.4-1-1s.4-1 1-1h29.7v-9.1c0-5.1-2.4-10-6.5-13.2-6.2 3.3-14 3.3-20.2 0-3.9 3.1-6.5 8.9-6.5 14.5 0 .6-.4 1-1 1s-1-.4-1-1c0-6.4 3.2-13.2 7.9-16.5.3-.2.7-.2 1.1-.1 3 1.7 6.3 2.5 9.7 2.5s6.7-.9 9.7-2.5c.3-.2.8-.2 1.1.1 4.9 3.5 7.9 9.2 7.9 15.2v10.1c-.2.5-.6 1-1.2 1z"/><path d="m527.7 410.2c-9.3 0-16.8-7.5-16.8-16.8s7.5-16.8 16.8-16.8 16.8 7.5 16.8 16.8-7.6 16.8-16.8 16.8zm0-31.6c-8.2 0-14.8 6.6-14.8 14.8s6.6 14.8 14.8 14.8 14.8-6.6 14.8-14.8-6.7-14.8-14.8-14.8z"/><path d="m548.9 447.6h-42.5c-.6 0-1-.4-1-1v-12.2c0-7.1 3.5-13.9 9.4-18.1.3-.2.7-.2 1.1-.1 3.6 2 7.7 3.1 11.8 3.1s8.2-1.1 11.8-3.1c.3-.2.8-.2 1.1.1 2.1 1.5 4 3.4 5.5 5.5 2.6 3.7 3.9 8.1 3.9 12.6v12.2c-.1.5-.5 1-1.1 1zm-41.5-2h40.5v-11.2c0-4.1-1.2-8.1-3.6-11.4-1.2-1.8-2.7-3.4-4.5-4.7-3.7 2-7.9 3-12.2 3-4.2 0-8.4-1-12.2-3-5.1 3.8-8.1 9.8-8.1 16.1z"/></g></svg>